<?xml version="1.0" encoding="UTF-8"?>
<svg width="32px" height="32px" viewBox="0 0 32 32" version="1.1" xmlns="http://www.w3.org/2000/svg" xmlns:xlink="http://www.w3.org/1999/xlink">
    <!-- Generator: Sketch 45.2 (43514) - http://www.bohemiancoding.com/sketch -->
    <title>ic-+</title>
    <desc>Created with Sketch.</desc>
    <defs>
        <rect id="path-1" x="0" y="0" width="32" height="32" rx="16"></rect>
    </defs>
    <g id="Symbols" stroke="none" stroke-width="1" fill="none" fill-rule="evenodd">
        <g id="Blue-Manipulator-4" transform="translate(-81.000000, -2.000000)">
            <g id="ic-+" transform="translate(81.000000, 2.000000)">
                <g id="Base">
                    <use fill="#FFFFFF" fill-rule="evenodd" xlink:href="#path-1"></use>
                    <rect stroke="#E5E5E5" stroke-width="1" x="0.5" y="0.5" width="31" height="31" rx="15.5"></rect>
                </g>
                <path d="M15.809622,15.8094879 L12.7617897,15.8094879 C12.3410275,15.8089492 12,16.1499767 12,16.5712776 C12,16.7813893 12.0851222,16.9721061 12.2230417,17.1100256 C12.3604224,17.2474064 12.5511392,17.3325286 12.7617897,17.3330673 L15.809622,17.3330673 L15.809622,20.3807649 C15.8090832,20.8015271 16.1501107,21.1425546 16.5714117,21.1425546 C16.7815234,21.1425546 16.9722402,21.0574324 17.1101597,20.9195129 C17.2475404,20.7821322 17.3326626,20.5914154 17.3332014,20.3807649 L17.3332014,17.3330673 L20.3807643,17.3330673 C20.8020652,17.3330673 21.1430927,16.9920398 21.142554,16.5712776 C21.142554,16.1499767 20.8015265,15.8089492 20.3807643,15.8094879 L17.3332014,15.8094879 L17.3332014,12.7617903 C17.3332014,12.3404894 16.9921739,11.9994619 16.5714117,12.0000006 C16.1501107,12.0000006 15.8090832,12.3410281 15.809622,12.7617903 L15.809622,15.8094879 Z" id="+" fill="#68A236"></path>
            </g>
        </g>
    </g>
</svg>