<?xml version="1.0" encoding="UTF-8"?>
<svg width="32px" height="32px" viewBox="0 0 32 32" version="1.1" xmlns="http://www.w3.org/2000/svg" xmlns:xlink="http://www.w3.org/1999/xlink">
    <!-- Generator: Sketch 45.2 (43514) - http://www.bohemiancoding.com/sketch -->
    <title>ic-add</title>
    <desc>Created with Sketch.</desc>
    <defs>
        <rect id="path-1" x="0" y="0" width="32" height="32" rx="16"></rect>
    </defs>
    <g id="Page-1" stroke="none" stroke-width="1" fill="none" fill-rule="evenodd">
        <g id="05-book-tour" transform="translate(-669.000000, -345.000000)">
            <g id="ic-add" transform="translate(669.000000, 345.000000)">
                <g id="Base">
                    <use fill="#68A236" fill-rule="evenodd" xlink:href="#path-1"></use>
                    <rect stroke="#68A236" stroke-width="1" x="0.5" y="0.5" width="31" height="31" rx="15.5"></rect>
                </g>
                <path d="M14.809622,14.8094879 L11.7617897,14.8094879 C11.3410275,14.8089492 11,15.1499767 11,15.5712776 C11,15.7813893 11.0851222,15.9721061 11.2230417,16.1100256 C11.3604224,16.2474064 11.5511392,16.3325286 11.7617897,16.3330673 L14.809622,16.3330673 L14.809622,19.3807649 C14.8090832,19.8015271 15.1501107,20.1425546 15.5714117,20.1425546 C15.7815234,20.1425546 15.9722402,20.0574324 16.1101597,19.9195129 C16.2475404,19.7821322 16.3326626,19.5914154 16.3332014,19.3807649 L16.3332014,16.3330673 L19.3807643,16.3330673 C19.8020652,16.3330673 20.1430927,15.9920398 20.142554,15.5712776 C20.142554,15.1499767 19.8015265,14.8089492 19.3807643,14.8094879 L16.3332014,14.8094879 L16.3332014,11.7617903 C16.3332014,11.3404894 15.9921739,10.9994619 15.5714117,11.0000006 C15.1501107,11.0000006 14.8090832,11.3410281 14.809622,11.7617903 L14.809622,14.8094879 Z" id="+" fill="#FFFFFF"></path>
            </g>
        </g>
    </g>
</svg>