<?xml version="1.0" encoding="UTF-8"?>
<svg width="22px" height="16px" viewBox="0 0 22 16" version="1.1" xmlns="http://www.w3.org/2000/svg" xmlns:xlink="http://www.w3.org/1999/xlink">
    <!-- Generator: Sketch 43.1 (39012) - http://www.bohemiancoding.com/sketch -->
    <title>ic-cart</title>
    <desc>Created with Sketch.</desc>
    <defs></defs>
    <g id="Symbols" stroke="none" stroke-width="1" fill="none" fill-rule="evenodd">
        <g id="btnBook" transform="translate(-22.000000, -22.000000)" fill="#000000">
            <g id="ic-cart">
                <path d="M32.8,34.8 C31.92,34.8 31.2,35.52 31.2,36.4 C31.2,37.28 31.92,38 32.8,38 C33.68,38 34.4,37.28 34.4,36.4 C34.4,35.52 33.68,34.8 32.8,34.8 L32.8,34.8 Z M28,22 L28,23.6 L29.6,23.6 L32.48,29.68 L31.36,31.6 C31.28,31.84 31.2,32.16 31.2,32.4 C31.2,33.28 31.92,34 32.8,34 L42.4,34 L42.4,32.4 L33.12,32.4 C33.04,32.4 32.96,32.32 32.96,32.24 L32.96,32.16 L33.68,30.8 L39.6,30.8 C40.24,30.8 40.72,30.48 40.96,30 L43.84,24.8 C44,24.64 44,24.56 44,24.4 C44,23.92 43.68,23.6 43.2,23.6 L31.36,23.6 L30.64,22 L28,22 L28,22 Z M40.8,34.8 C41.68,34.8 42.4,35.52 42.4,36.4 C42.4,37.28 41.68,38 40.8,38 C39.92,38 39.2,37.28 39.2,36.4 C39.2,35.52 39.92,34.8 40.8,34.8 Z M27,28 L30,28 L30,30 L27,30 L27,33 L25,33 L25,30 L22,30 L22,28 L25,28 L25,25 L27,25 L27,28 Z"></path>
            </g>
        </g>
    </g>
</svg>