<?xml version="1.0" encoding="UTF-8"?>
<svg width="21px" height="15px" viewBox="0 0 21 15" version="1.1" xmlns="http://www.w3.org/2000/svg" xmlns:xlink="http://www.w3.org/1999/xlink">
    <!-- Generator: Sketch 45 (43475) - http://www.bohemiancoding.com/sketch -->
    <title>ic-cloud</title>
    <desc>Created with Sketch.</desc>
    <defs></defs>
    <g id="Page-1" stroke="none" stroke-width="1" fill="none" fill-rule="evenodd">
        <g id="04-details-page" transform="translate(-638.000000, -452.000000)" fill="#FFFFFF">
            <g id="popup" transform="translate(0.000000, -390.000000)">
                <g id="Group-2" transform="translate(604.000000, 827.000000)">
                    <g id="Dibujo" transform="translate(34.280000, 11.548976)">
                        <g id="Group">
                            <path d="M18.6726591,11.0921354 C19.0021397,10.4318523 19.1761194,9.70643692 19.1761194,8.96 C19.1761194,6.29956923 16.9865552,4.13538462 14.2949254,4.13538462 C12.6907558,4.13538462 11.1936239,4.92145231 10.2867678,6.21031385 C10.2281934,6.20859077 10.1703164,6.20307692 10.1113934,6.20307692 C7.43928836,6.20307692 5.15384358,7.93028923 4.42445373,10.4018708 C4.22327881,10.3656862 4.01234149,10.3384615 3.83557254,10.3384615 C1.7206209,10.3384615 0.000348656717,12.0391385 0.000348656717,14.1292308 C0.000348656717,16.2193231 1.7206209,17.92 3.83557254,17.92 L16.3872143,17.92 C18.5018173,17.92 20.2224382,16.2193231 20.2224382,14.1292308 C20.2224382,12.8858585 19.6108943,11.7837785 18.6726591,11.0921354 L18.6726591,11.0921354 Z M14.2949254,5.51384615 C16.2174185,5.51384615 17.7814925,7.05979077 17.7814925,8.96 C17.7814925,9.49346462 17.6559761,10.0110769 17.4202842,10.4821662 C17.0908036,10.3908431 16.7452848,10.3384615 16.3872143,10.3384615 C16.2100967,10.3384615 15.9995081,10.3656862 15.7979845,10.4018708 C15.2373445,8.50269538 13.7569481,7.04704 11.8895427,6.47291077 C12.5303737,5.8688 13.3873719,5.51384615 14.2949254,5.51384615 L14.2949254,5.51384615 Z M16.3872143,16.5415385 L3.83557254,16.5415385 C2.49010627,16.5415385 1.39497552,15.4591015 1.39497552,14.1292308 C1.39497552,12.79936 2.49010627,11.7169231 3.83557254,11.7169231 C3.93215045,11.7169231 4.08765134,11.7403569 4.25152,11.7727508 L4.25152,12.4061538 C4.25152,12.7866092 4.56391642,13.0953846 4.94883343,13.0953846 C5.33375045,13.0953846 5.64614687,12.7866092 5.64614687,12.4061538 L5.64614687,11.2968369 C6.02025552,9.14195692 7.89010149,7.58153846 10.1113934,7.58153846 C12.333034,7.58153846 14.2032287,9.14264615 14.57664,11.29856 L14.57664,12.4061538 C14.57664,12.7866092 14.8890364,13.0953846 15.2739534,13.0953846 C15.6588704,13.0953846 15.9712669,12.7866092 15.9712669,12.4061538 L15.9712669,11.7730954 C16.1354842,11.7407015 16.2916824,11.7169231 16.3872143,11.7169231 C17.7326806,11.7169231 18.8278113,12.79936 18.8278113,14.1292308 C18.8278113,15.4591015 17.7326806,16.5415385 16.3872143,16.5415385 L16.3872143,16.5415385 Z" id="ic-cloud"></path>
                        </g>
                    </g>
                </g>
            </g>
        </g>
    </g>
</svg>