<?xml version="1.0" encoding="UTF-8"?>
<svg width="19px" height="16px" viewBox="0 0 19 16" version="1.1" xmlns="http://www.w3.org/2000/svg" xmlns:xlink="http://www.w3.org/1999/xlink">
    <!-- Generator: Sketch 43.1 (39012) - http://www.bohemiancoding.com/sketch -->
    <title>ic-camera</title>
    <desc>Created with Sketch.</desc>
    <defs></defs>
    <g id="Page-1" stroke="none" stroke-width="1" fill="none" fill-rule="evenodd">
        <g id="04-details-page" transform="translate(-638.000000, -2546.000000)" fill="#999999">
            <g id="cmt" transform="translate(69.000000, 2497.000000)">
                <g id="Comment-user">
                    <path d="M586.8125,51.2857143 L583.84375,51.2857143 L581.46875,49 L575.53125,49 L573.15625,51.2857143 L570.1875,51.2857143 C569.531406,51.2857143 569,51.7971429 569,52.4285714 L569,63.8571429 C569,64.488 569.531406,65 570.1875,65 L586.8125,65 C587.468,65 588,64.488 588,63.8571429 L588,52.4285714 C588,51.7971429 587.468,51.2857143 586.8125,51.2857143 L586.8125,51.2857143 Z M587.157835,64.1892464 L569.84129,64.1892464 L569.84129,52.4259969 L573.333238,52.4259969 L575.997321,49.8119415 L581.001803,49.8119415 L583.665887,52.4259969 L587.157835,52.4259969 L587.157835,64.1892464 L587.157835,64.1892464 Z M578.483119,54.2223679 C576.553329,54.2223679 574.988931,55.7573883 574.988931,57.6509393 C574.988931,59.5440006 576.553329,61.0795108 578.483119,61.0795108 C580.412909,61.0795108 581.977307,59.5440006 581.977307,57.6509393 C581.977307,55.7573883 580.412909,54.2223679 578.483119,54.2223679 L578.483119,54.2223679 Z M578.499562,60.2681632 C577.03032,60.2681632 575.835478,59.0957594 575.835478,57.6541078 C575.835478,56.2124562 577.03032,55.0400523 578.499562,55.0400523 C579.968805,55.0400523 581.163646,56.2124562 581.163646,57.6541078 C581.163646,59.0957594 579.968805,60.2681632 578.499562,60.2681632 L578.499562,60.2681632 Z" id="ic-camera"></path>
                </g>
            </g>
        </g>
    </g>
</svg>