<?xml version="1.0" encoding="UTF-8"?>
<svg width="20px" height="19px" viewBox="0 0 20 19" version="1.1" xmlns="http://www.w3.org/2000/svg" xmlns:xlink="http://www.w3.org/1999/xlink">
    <!-- Generator: Sketch 43.1 (39012) - http://www.bohemiancoding.com/sketch -->
    <title>ic-detail-car</title>
    <desc>Created with Sketch.</desc>
    <defs></defs>
    <g id="Page-1" stroke="none" stroke-width="1" fill="none" fill-rule="evenodd">
        <g id="04-details-page" transform="translate(-68.000000, -601.000000)" fill="#000000">
            <g id="ic-detail-car" transform="translate(68.000000, 601.739000)">
                <path d="M12.1747826,12.6125217 C12.1747826,11.8925217 12.7591304,11.3081739 13.4791304,11.3081739 C14.1991304,11.3081739 14.7834783,11.8925217 14.7834783,12.6125217 C14.7834783,13.3325217 14.1991304,13.9168696 13.4791304,13.9168696 C12.7591304,13.9168696 12.1747826,13.3325217 12.1747826,12.6125217 L12.1747826,12.6125217 Z M5.65304348,13.9168696 C4.93304348,13.9168696 4.34869565,13.3325217 4.34869565,12.6125217 C4.34869565,11.8925217 4.93304348,11.3081739 5.65304348,11.3081739 C6.37304348,11.3081739 6.9573913,11.8925217 6.9573913,12.6125217 C6.9573913,13.3325217 6.37304348,13.9168696 5.65304348,13.9168696 L5.65304348,13.9168696 Z M4.34869565,3.48208696 L14.7834783,3.48208696 L14.7834783,9.56904348 L4.34869565,9.56904348 L4.34869565,3.48208696 Z M14.7834783,0.00382608696 L4.34869565,0.00382608696 C3.38782609,0.00382608696 2.60956522,0.782956522 2.60956522,1.74295652 L2.60956522,15.656 C2.60956522,16.616 3.38782609,17.3951304 4.34869565,17.3951304 C5.30869565,17.3951304 6.08782609,16.616 6.08782609,15.656 L13.0443478,15.656 C13.0443478,16.616 13.8226087,17.3951304 14.7834783,17.3951304 C15.7434783,17.3951304 16.5226087,16.616 16.5226087,15.656 L16.5226087,1.74295652 C16.5226087,0.782956522 15.7434783,0.00382608696 14.7834783,0.00382608696 L14.7834783,0.00382608696 Z" id="Fill-687"></path>
                <polygon id="Fill-688" points="17.3921739 7.82956522 19.1313043 7.82956522 19.1313043 4.35130435 17.3921739 4.35130435"></polygon>
                <polygon id="Fill-689" points="0.000869565218 7.82956522 1.74 7.82956522 1.74 4.35130435 0.000869565218 4.35130435"></polygon>
            </g>
        </g>
    </g>
</svg>