<?xml version="1.0" encoding="UTF-8"?>
<svg width="16px" height="16px" viewBox="0 0 16 16" version="1.1" xmlns="http://www.w3.org/2000/svg" xmlns:xlink="http://www.w3.org/1999/xlink">
    <!-- Generator: Sketch 43.1 (39012) - http://www.bohemiancoding.com/sketch -->
    <title>ic-detail-code</title>
    <desc>Created with Sketch.</desc>
    <defs></defs>
    <g id="Page-1" stroke="none" stroke-width="1" fill="none" fill-rule="evenodd">
        <g id="04-details-page" transform="translate(-70.000000, -442.000000)" fill="#000000">
            <g id="ic-detail-code" transform="translate(70.000000, 442.000000)">
                <path d="M8,6.40312 C7.1176,6.40312 6.4,7.12072 6.4,8.00312 C6.4,8.88552 7.1176,9.60312 8,9.60312 C8.8824,9.60312 9.6,8.88552 9.6,8.00312 C9.6,7.12072 8.8824,6.40312 8,6.40312" id="Fill-332"></path>
                <path d="M14.4,6.40312 L12.8,6.40312 L12.8,3.20312 L9.6,3.20312 L9.6,1.60312 L12.8,1.60312 C13.6824,1.60312 14.4,2.32072 14.4,3.20312 L14.4,6.40312 Z M14.4,12.80312 C14.4,13.68552 13.6824,14.40312 12.8,14.40312 L9.6,14.40312 L9.6,12.80312 L12.8,12.80312 L12.8,9.60312 L14.4,9.60312 L14.4,12.80312 Z M8.8,12.80312 L7.2,12.80312 L7.2,11.08952 C6.0808,10.79832 5.2048,9.92232 4.9136,8.80312 L3.2,8.80312 L3.2,7.20312 L4.9136,7.20312 C5.2048,6.08392 6.0808,5.20792 7.2,4.91672 L7.2,3.20312 L8.8,3.20312 L8.8,4.91672 C9.9192,5.20792 10.7952,6.08392 11.0864,7.20312 L12.8,7.20312 L12.8,8.80312 L11.0864,8.80312 C10.7952,9.92232 9.9192,10.79832 8.8,11.08952 L8.8,12.80312 Z M6.4,14.40312 L3.2,14.40312 C2.3176,14.40312 1.6,13.68552 1.6,12.80312 L1.6,9.60312 L3.2,9.60312 L3.2,12.80312 L6.4,12.80312 L6.4,14.40312 Z M1.6,3.20312 C1.6,2.32072 2.3176,1.60312 3.2,1.60312 L6.4,1.60312 L6.4,3.20312 L3.2,3.20312 L3.2,6.40312 L1.6,6.40312 L1.6,3.20312 Z M14.4,0.00312 L1.6,0.00312 C0.7168,0.00312 0,0.71992 0,1.60312 L0,14.40312 C0,15.28632 0.7168,16.00312 1.6,16.00312 L14.4,16.00312 C15.2832,16.00312 16,15.28632 16,14.40312 L16,1.60312 C16,0.71992 15.2832,0.00312 14.4,0.00312 L14.4,0.00312 Z" id="Fill-333"></path>
            </g>
        </g>
    </g>
</svg>