<?xml version="1.0" encoding="UTF-8"?>
<svg width="40px" height="40px" viewBox="0 0 40 40" version="1.1" xmlns="http://www.w3.org/2000/svg" xmlns:xlink="http://www.w3.org/1999/xlink">
    <!-- Generator: Sketch 45.2 (43514) - http://www.bohemiancoding.com/sketch -->
    <title>ic-edit-avatar</title>
    <desc>Created with Sketch.</desc>
    <defs></defs>
    <g id="Page-1" stroke="none" stroke-width="1" fill="none" fill-rule="evenodd">
        <g id="member" transform="translate(-304.000000, -364.000000)">
            <g id="taikhoan" transform="translate(69.000000, 364.000000)">
                <g id="ic-edit-avatar" transform="translate(235.000000, 0.000000)">
                    <circle id="Oval-84" fill="#60A43A" cx="20" cy="20" r="20"></circle>
                    <path d="M20.0325147,18.8308758 L15.5232273,14.3215884 C15.1964742,13.9948353 14.6565534,13.9929066 14.32473,14.32473 C13.9905932,14.6588668 13.9915001,15.193139 14.3215884,15.5232273 L18.8308758,20.0325147 L14.3215884,24.5418021 C13.9948353,24.8685552 13.9929066,25.408476 14.32473,25.7402994 C14.6588668,26.0744362 15.193139,26.0735294 15.5232273,25.743441 L20.0325147,21.2341536 L24.5418021,25.743441 C24.8685552,26.0701941 25.408476,26.0721228 25.7402994,25.7402994 C26.0744362,25.4061626 26.0735294,24.8718905 25.743441,24.5418021 L21.2341536,20.0325147 L25.743441,15.5232273 C26.0701941,15.1964742 26.0721228,14.6565534 25.7402994,14.32473 C25.4061626,13.9905932 24.8718905,13.9915001 24.5418021,14.3215884 L20.0325147,18.8308758 Z" id="Rectangle-2" fill="#FFFFFF" transform="translate(20.032515, 20.032515) rotate(-315.000000) translate(-20.032515, -20.032515) "></path>
                </g>
            </g>
        </g>
    </g>
</svg>