<?xml version="1.0" encoding="UTF-8"?>
<svg width="15px" height="12px" viewBox="0 0 15 12" version="1.1" xmlns="http://www.w3.org/2000/svg" xmlns:xlink="http://www.w3.org/1999/xlink">
    <!-- Generator: Sketch 45 (43475) - http://www.bohemiancoding.com/sketch -->
    <title>ic-email</title>
    <desc>Created with Sketch.</desc>
    <defs></defs>
    <g id="Page-1" stroke="none" stroke-width="1" fill="none" fill-rule="evenodd">
        <g id="04-details-page" transform="translate(-783.000000, -663.000000)" fill="#000000">
            <g id="popupSignUp" transform="translate(0.000000, -390.000000)">
                <path d="M792.256875,1058.28188 L797.0625,1054.41563 L797.0625,1062.79688 L792.256875,1058.28188 Z M789.481875,1058.87531 L790.206563,1059.45844 L790.21125,1059.45281 C790.290938,1059.5175 790.389375,1059.5625 790.5,1059.5625 C790.611563,1059.5625 790.709063,1059.5175 790.789688,1059.45281 L790.794375,1059.45844 L791.519063,1058.87531 L796.24125,1063.3125 L784.75875,1063.3125 L789.481875,1058.87531 Z M788.744063,1058.28187 L783.9375,1062.79688 L783.9375,1054.41281 L788.744063,1058.28187 Z M790.5,1058.49187 L784.842188,1053.9375 L796.161563,1053.9375 L790.5,1058.49187 Z M796.59375,1053 L784.40625,1053 C783.630937,1053 783,1053.63 783,1054.40625 L783,1062.84375 C783,1063.61906 783.630937,1064.25 784.40625,1064.25 L796.59375,1064.25 C797.37,1064.25 798,1063.61906 798,1062.84375 L798,1054.40625 C798,1053.63 797.37,1053 796.59375,1053 L796.59375,1053 Z" id="ic-email"></path>
            </g>
        </g>
    </g>
</svg>