<?xml version="1.0" encoding="UTF-8"?>
<svg width="16px" height="16px" viewBox="0 0 16 16" version="1.1" xmlns="http://www.w3.org/2000/svg" xmlns:xlink="http://www.w3.org/1999/xlink">
    <!-- Generator: Sketch 45.2 (43514) - http://www.bohemiancoding.com/sketch -->
    <title>ic-edit</title>
    <desc>Created with Sketch.</desc>
    <defs></defs>
    <g id="Page-1" stroke="none" stroke-width="1" fill="none" fill-rule="evenodd">
        <g id="member" transform="translate(-1141.000000, -437.000000)" fill="#757575">
            <g id="list" transform="translate(69.000000, 371.000000)">
                <g id="ic-edit" transform="translate(1072.000000, 66.000000)">
                    <path d="M0.398344828,15.6016552 L1.74344828,10.2201379 L9.93103448,2.03310345 L13.9668966,6.06896552 L5.77986207,14.2565517 L0.398344828,15.6016552 L0.398344828,15.6016552 Z M2.67034483,10.7453793 L1.80855172,14.1914483 L5.25462069,13.3296552 L12.5158621,6.06896552 L9.93103448,3.48413793 L2.67034483,10.7453793 L2.67034483,10.7453793 Z" id="Fill-168"></path>
                    <path d="M4.88331034,13.9514483 C4.53462069,12.5517241 3.44827586,11.4653793 2.04855172,11.1166897 L2.29737931,10.1208276 C4.06565517,10.5616552 5.43834483,11.9343448 5.87917241,13.7026207 L4.88331034,13.9514483" id="Fill-169"></path>
                    <polyline id="Fill-170" points="4.77682759 11.9492414 4.05075862 11.2231724 11.2231724 4.05075862 11.9492414 4.77682759 4.77682759 11.9492414"></polyline>
                    <path d="M1.10344828,14.8965517 L2.70455172,14.4965517 C2.55668966,13.9056552 2.09434483,13.4433103 1.50344828,13.2954483 L1.10344828,14.8965517" id="Fill-171"></path>
                    <path d="M14.3448276,5.69103448 L10.3089655,1.65517241 L11.9166897,0.0474482759 L12.1677241,0.0811034483 C14.1164138,0.340965517 15.6590345,1.88358621 15.9188966,3.83227586 L15.9525517,4.08331034 L14.3448276,5.69103448 L14.3448276,5.69103448 Z M11.76,1.65517241 L14.3448276,4.24 L14.8601379,3.72468966 C14.5886897,2.43034483 13.5696552,1.41131034 12.2753103,1.13986207 L11.76,1.65517241 L11.76,1.65517241 Z" id="Fill-172"></path>
                </g>
            </g>
        </g>
    </g>
</svg>