<?xml version="1.0" encoding="UTF-8"?>
<svg width="14px" height="14px" viewBox="0 0 14 14" version="1.1" xmlns="http://www.w3.org/2000/svg" xmlns:xlink="http://www.w3.org/1999/xlink">
    <!-- Generator: Sketch 43.1 (39012) - http://www.bohemiancoding.com/sketch -->
    <title>ic-globe</title>
    <desc>Created with Sketch.</desc>
    <defs></defs>
    <g id="Symbols" stroke="none" stroke-width="1" fill="none" fill-rule="evenodd">
        <g id="footerMenu" transform="translate(-69.000000, -77.000000)" fill="#E1E1E1">
            <g id="Group-6" transform="translate(69.000000, 72.000000)">
                <g id="Group-5">
                    <g id="Group-4" transform="translate(0.000000, 5.000000)">
                        <g id="Icon/24x24/ball">
                            <path d="M1.1798503,7.33936926 C2.56176697,7.18536926 3.85443364,6.63003593 4.91143364,5.73578593 L6.16851697,6.99286926 L2.47718364,10.6842026 C1.69726697,9.73336926 1.2498503,8.57486926 1.1798503,7.33936926 L1.1798503,7.33936926 Z M7.34043364,1.17645259 C8.57768364,1.24003593 9.73501697,1.69386926 10.685267,2.47611926 L6.9933503,6.16803593 L5.7368503,4.91095259 C6.63168364,3.85278593 7.18701697,2.55953593 7.34043364,1.17645259 L7.34043364,1.17645259 Z M3.30318364,2.47728593 C4.12218364,1.80761926 5.10626697,1.37886926 6.15743364,1.22895259 C6.00751697,2.28070259 5.5793503,3.26478593 4.90968364,4.08436926 L3.30318364,2.47728593 Z M4.0848503,4.90861926 C3.26526697,5.57828593 2.28176697,6.00703593 1.23001697,6.15695259 C1.38051697,5.10520259 1.8081003,4.12111926 2.4783503,3.30211926 L4.0848503,4.90861926 Z M12.8074336,6.64636926 C11.4249336,6.80036926 10.1328503,7.35570259 9.07526697,8.25053593 L7.81818364,6.99286926 L11.5101003,3.30095259 C12.290017,4.25236926 12.738017,5.40970259 12.8074336,6.64636926 L12.8074336,6.64636926 Z M9.90243364,9.07711926 C10.7214336,8.40745259 11.705517,7.97928593 12.757267,7.82936926 C12.606767,8.88053593 12.1791836,9.86403593 11.509517,10.6836193 L9.90243364,9.07711926 Z M9.0776003,9.90195259 L10.6841003,11.5084526 C9.8651003,12.1787026 8.88101697,12.6062859 7.8298503,12.7562026 C7.97976697,11.7050359 8.40793364,10.7215359 9.0776003,9.90195259 L9.0776003,9.90195259 Z M6.6468503,12.8092859 C5.40901697,12.7445359 4.25226697,12.2912859 3.30201697,11.5096193 L6.9933503,7.81770259 L8.25101697,9.07536926 C7.3556003,10.1329526 6.8008503,11.4262026 6.6468503,12.8092859 L6.6468503,12.8092859 Z M13.984017,7.20228593 L13.984017,7.20228593 C14.0423503,5.24870259 13.317267,3.41703593 11.943517,2.04328593 C10.5691836,0.668952595 8.7433503,-0.0450474052 6.78393364,0.00220259476 C4.99018364,0.0558692614 3.30668364,0.780369261 2.04376697,2.04328593 C0.781433638,3.30561926 0.0569336378,4.98853593 0.00326697114,6.78286926 L0.00326697114,6.78345259 C-0.0550663622,8.73645259 0.669433638,10.5681193 2.04376697,11.9430359 C3.3673503,13.2660359 5.11443364,13.9870359 6.98576697,13.9870359 C7.0581003,13.9870359 7.13043364,13.9858693 7.2033503,13.9841193 C8.9971003,13.9298693 10.6806003,13.2053693 11.943517,11.9430359 C13.2058503,10.6801193 13.9303503,8.99720259 13.984017,7.20286926 L13.984017,7.20228593 Z" id="Fill-35"></path>
                        </g>
                    </g>
                </g>
            </g>
        </g>
    </g>
</svg>