<?xml version="1.0" encoding="UTF-8"?>
<svg width="17px" height="17px" viewBox="0 0 17 17" version="1.1" xmlns="http://www.w3.org/2000/svg" xmlns:xlink="http://www.w3.org/1999/xlink">
    <!-- Generator: Sketch 45 (43475) - http://www.bohemiancoding.com/sketch -->
    <title>ic-global</title>
    <desc>Created with Sketch.</desc>
    <defs></defs>
    <g id="Page-1" stroke="none" stroke-width="1" fill="none" fill-rule="evenodd">
        <g id="06-dichvu" transform="translate(-73.000000, -828.000000)" fill="#000000">
            <path d="M85.5568295,842.520313 C85.48286,842.082545 85.0960193,839.951673 84.1434115,837.336057 C86.4874463,836.961256 88.5176104,837.603916 88.6675487,837.65289 C88.3446816,839.675819 87.1861586,841.419895 85.5568295,842.520313 L85.5568295,842.520313 L85.5568295,842.520313 Z M81.5004998,843.759657 C79.7432234,843.759657 78.1318869,843.134987 76.8754042,842.095538 C76.9713647,842.173496 77.0383372,842.22247 77.0383372,842.22247 C77.0383372,842.22247 78.4297642,839.188077 82.7349915,837.687871 C82.7509849,837.681874 82.7679779,837.677876 82.7839713,837.672879 C83.8055507,840.326474 84.2263774,842.549297 84.3343329,843.183961 C83.4636914,843.553766 82.5050861,843.759657 81.5004998,843.759657 L81.5004998,843.759657 L81.5004998,843.759657 Z M74.2404892,836.4995 C74.2404892,836.422541 74.2444876,836.346581 74.2464867,836.270621 C74.3754336,836.27362 77.9619568,836.354577 81.6994179,835.236169 C81.9073323,835.642954 82.1062504,836.057734 82.2881755,836.470516 C82.192215,836.496502 82.0972541,836.525487 82.0022932,836.55747 C78.0849062,837.8228 76.0977245,841.346934 76.0977245,841.346934 C76.0977245,841.346934 76.1007232,841.349932 76.1007232,841.350932 C74.9441994,840.064613 74.2404892,838.364513 74.2404892,836.4995 L74.2404892,836.4995 L74.2404892,836.4995 Z M78.4027753,829.935975 C78.4997354,830.064907 79.8421826,831.884943 81.0986653,834.117761 C77.6131005,835.044271 74.5873464,835.00729 74.396425,835.004292 C74.8672311,832.755482 76.3776092,830.891469 78.4027753,829.935975 L78.4027753,829.935975 L78.4027753,829.935975 Z M79.761216,829.452231 C79.761216,829.453231 79.7602164,829.45423 79.7602164,829.45423 C79.7602164,829.45423 79.7512201,829.456229 79.7382254,829.458228 C79.7462221,829.456229 79.7532193,829.45523 79.761216,829.452231 L79.761216,829.452231 L79.761216,829.452231 Z M86.2945258,831.053384 C86.2765332,831.080369 85.2429588,832.654536 82.5020874,833.680992 C81.2615982,831.401199 79.8981596,829.590158 79.7892044,829.446234 C80.3379785,829.313305 80.9107426,829.241343 81.5004998,829.241343 C83.3377433,829.241343 85.0160522,829.92698 86.2945258,831.053384 L86.2945258,831.053384 L86.2945258,831.053384 Z M88.7575116,836.427538 C88.6525548,836.404551 86.1955665,835.87583 83.7015935,836.189664 C83.6496149,836.06573 83.5986359,835.940796 83.5446581,835.815862 C83.3937202,835.460051 83.2307873,835.108237 83.0618569,834.76242 C85.9286764,833.59204 87.0921973,831.90993 87.1061916,831.889941 C88.1237726,833.126286 88.7405186,834.70545 88.7575116,836.427538 L88.7575116,836.427538 L88.7575116,836.427538 Z M89.8280708,834.789406 C89.7161169,834.243695 89.548186,833.70498 89.3312754,833.191252 C89.1193626,832.687518 88.8544717,832.201776 88.547598,831.748016 C88.2447228,831.298254 87.8948668,830.874478 87.5110249,830.490681 C87.1261833,830.105885 86.7033574,829.75707 86.2525431,829.453231 C85.7987299,829.145394 85.31293,828.882533 84.8091374,828.668646 C84.295349,828.45276 83.7575704,828.284849 83.2117951,828.173908 C82.6520256,828.058969 82.0762627,828 81.5004998,828 C80.9237373,828 80.3479744,828.058969 79.7882049,828.173908 C79.2424296,828.284849 78.704651,828.45276 78.1908626,828.668646 C77.68707,828.882533 77.2012701,829.145394 76.7464573,829.453231 C76.2966426,829.75707 75.8738167,830.105885 75.4889751,830.490681 C75.1051332,830.874478 74.7562768,831.298254 74.452402,831.748016 C74.1455283,832.201776 73.8806374,832.687518 73.6687246,833.191252 C73.4508144,833.70498 73.2838831,834.243695 73.1719292,834.789406 C73.0579761,835.34811 73,835.923805 73,836.4995 C73,837.077194 73.0579761,837.65289 73.1719292,838.212593 C73.2838831,838.758304 73.4508144,839.29602 73.6687246,839.808748 C73.8806374,840.312482 74.1455283,840.800223 74.452402,841.253983 C74.7562768,841.703745 75.1051332,842.125522 75.4889751,842.511318 C75.8738167,842.895114 76.2966426,843.24293 76.7464573,843.547769 C77.2012701,843.854606 77.68707,844.118467 78.1908626,844.331354 C78.704651,844.549239 79.2424296,844.715151 79.7882049,844.826092 C80.3479744,844.942031 80.9237373,845 81.5004998,845 C82.0762627,845 82.6520256,844.942031 83.2117951,844.826092 C83.7575704,844.715151 84.295349,844.549239 84.8091374,844.331354 C85.31293,844.118467 85.7987299,843.854606 86.2525431,843.547769 C86.7033574,843.24293 87.1261833,842.895114 87.5110249,842.511318 C87.8948668,842.125522 88.2447228,841.703745 88.547598,841.253983 C88.8544717,840.800223 89.1193626,840.312482 89.3312754,839.808748 C89.548186,839.29602 89.7161169,838.758304 89.8280708,838.212593 C89.9420239,837.65289 90,837.077194 90,836.4995 C90,835.923805 89.9420239,835.34811 89.8280708,834.789406 L89.8280708,834.789406 L89.8280708,834.789406 Z" id="ic-global"></path>
        </g>
    </g>
</svg>