<?xml version="1.0" encoding="UTF-8"?>
<svg width="147px" height="114px" viewBox="0 0 147 114" version="1.1" xmlns="http://www.w3.org/2000/svg" xmlns:xlink="http://www.w3.org/1999/xlink">
    <!-- Generator: Sketch 45 (43475) - http://www.bohemiancoding.com/sketch -->
    <title>ic-lotus</title>
    <desc>Created with Sketch.</desc>
    <defs></defs>
    <g id="Page-1" stroke="none" stroke-width="1" fill="none" fill-rule="evenodd">
        <g id="11-gioithieu" transform="translate(-283.000000, -1954.000000)" fill="#E6E3DB">
            <g id="s5-copy" transform="translate(0.000000, 1800.000000)">
                <g id="1" transform="translate(69.000000, 78.000000)">
                    <path d="M332.298473,168.343672 C327.741957,172.893099 322.005337,174.902362 316.588328,175.653793 C322.021727,167.894447 326.258631,158.101335 326.258631,146.298961 C326.258631,143.660783 325.9718,141.022605 325.570237,138.400763 C332.62628,135.811592 340.051106,134.398574 345.656604,133.696149 C344.255229,144.567401 340.559207,160.110597 332.298473,168.343672 L332.298473,168.343672 Z M232.178055,133.679813 C237.775357,134.382238 245.208379,135.762585 252.272617,138.37626 C251.879249,141.014437 251.584223,143.652615 251.584223,146.298961 C251.584223,158.093167 255.812931,167.869943 261.246331,175.62929 C255.829322,174.886026 250.084506,172.876764 245.552576,168.360007 C237.275452,160.110597 233.587625,144.559234 232.178055,133.679813 L232.178055,133.679813 Z M288.946012,100.665837 C297.706652,111.545257 309.868287,130.208527 309.868287,146.298961 C309.868287,163.410361 295.903714,175.318916 288.921427,180.195052 C281.93914,175.318916 267.974567,163.410361 267.974567,146.298961 C267.974567,129.195728 281.045867,110.442613 288.946012,100.665837 L288.946012,100.665837 Z M354.458219,116.601084 C353.646897,116.617419 337.248357,116.976799 321.161234,122.588032 C312.515328,101.000714 295.764396,83.5135973 294.813756,82.5334693 L288.921427,76.4648438 L283.029098,82.5334693 C282.086653,83.5135973 265.335721,101.000714 256.68162,122.588032 C240.602692,116.976799 224.204152,116.617419 223.384635,116.601084 L214.910827,116.462232 L215.050145,124.907668 C215.074731,126.402363 215.869662,161.86666 233.956407,179.901014 C244.011884,189.922822 256.755376,192.364975 266.794462,192.364975 C270.621608,192.364975 274.006214,192.013762 276.751596,191.580872 C278.234922,192.716187 279.554345,193.622805 280.726255,194.406908 L280.726255,235.237405 L297.116599,235.237405 L297.116599,194.406908 C298.296704,193.622805 299.607931,192.716187 301.091258,191.580872 C303.828445,192.013762 307.221246,192.364975 311.048392,192.364975 C321.079283,192.364975 333.83097,189.922822 343.894642,179.901014 C361.973192,161.86666 362.768123,126.402363 362.792709,124.907668 L362.932027,116.462232 L354.458219,116.601084 Z" id="ic-lotus"></path>
                </g>
            </g>
        </g>
    </g>
</svg>