<?xml version="1.0" encoding="UTF-8"?>
<svg width="68px" height="20px" viewBox="0 0 68 20" version="1.1" xmlns="http://www.w3.org/2000/svg" xmlns:xlink="http://www.w3.org/1999/xlink">
    <!-- Generator: Sketch 45.2 (43514) - http://www.bohemiancoding.com/sketch -->
    <title>ic-liked</title>
    <desc>Created with Sketch.</desc>
    <defs>
        <rect id="path-1" x="0" y="0" width="68" height="20" rx="4"></rect>
    </defs>
    <g id="Page-1" stroke="none" stroke-width="1" fill="none" fill-rule="evenodd">
        <g id="04-details-page" transform="translate(-355.000000, -1229.000000)">
            <g id="ic-liked" transform="translate(355.000000, 1229.000000)">
                <g id="Rectangle-6-Copy">
                    <use fill="#68A236" fill-rule="evenodd" xlink:href="#path-1"></use>
                    <rect stroke="#68A236" stroke-width="1" x="0.5" y="0.5" width="67" height="19" rx="4"></rect>
                </g>
                <text id="Like-Copy" font-family="SVN-Gotham" font-size="12" font-weight="normal" fill="#FFFFFF">
                    <tspan x="31.454" y="14">Like</tspan>
                </text>
                <g id="like-copy" transform="translate(11.000000, 4.000000)" fill-rule="nonzero" fill="#FFFFFF">
                    <path d="M1.70620841,3.21031264 L0.341249848,3.21031264 C0.153599178,3.21031264 0,3.36313606 0,3.55154207 L0,9.69389643 C0,9.88222078 0.152925497,10.035085 0.341249848,10.035085 L1.70620841,10.035085 C1.89453276,10.035085 2.04745826,9.88220036 2.04745826,9.69389643 L2.04745826,3.55154207 C2.04745826,3.36313606 1.89383866,3.21031264 1.70620841,3.21031264 Z" id="Shape"></path>
                    <path d="M9.60027524,3.21031264 C9.54531923,3.2010036 6.97212471,3.21031264 6.97212471,3.21031264 L7.33154352,2.22976031 C7.57953964,1.55252757 7.4189791,0.518468676 6.7308654,0.150843212 C6.50681556,0.0311322097 6.19377864,-0.0289886805 5.94139339,0.0345414419 C5.79665413,0.0709610236 5.66945099,0.166786986 5.5936313,0.295174177 C5.50644069,0.442832717 5.51544352,0.615192879 5.48439297,0.77891768 C5.40565399,1.19419074 5.20942921,1.58902881 4.90555843,1.88538704 C4.37575967,2.40210006 2.72995795,3.8927715 2.72995795,3.8927715 L2.72995795,9.35264658 L8.41731251,9.35264658 C9.18473679,9.3530957 9.68766998,8.49609231 9.30916356,7.82667835 C9.76034583,7.5377102 9.91465952,6.92904998 9.6504134,6.46171979 C10.1016161,6.17275164 10.2559094,5.56409142 9.99166325,5.09676123 C10.7701522,4.59817634 10.509887,3.36415679 9.60027524,3.21031264 Z" id="Shape"></path>
                </g>
            </g>
        </g>
    </g>
</svg>