<?xml version="1.0" encoding="UTF-8"?>
<svg width="60px" height="60px" viewBox="0 0 60 60" version="1.1" xmlns="http://www.w3.org/2000/svg" xmlns:xlink="http://www.w3.org/1999/xlink">
    <!-- Generator: Sketch 45.2 (43514) - http://www.bohemiancoding.com/sketch -->
    <title>ic-money3-active</title>
    <desc>Created with Sketch.</desc>
    <defs></defs>
    <g id="Page-1" stroke="none" stroke-width="1" fill="none" fill-rule="evenodd">
        <g id="05-book-tour" transform="translate(-436.000000, -826.000000)">
            <g id="hinh-thuc-thanh-toan" transform="translate(143.000000, 826.000000)">
                <g id="ic-money3-active" transform="translate(293.000000, 0.000000)">
                    <ellipse id="Oval-204-Copy-19" fill="#68A236" cx="29.5937584" cy="29.8253379" rx="29.5937584" ry="29.8253379"></ellipse>
                    <g id="ic" transform="translate(14.057035, 19.183115)" fill="#FFFFFF">
                        <path d="M0.470540759,2.16604822 C0.517705811,2.0295973 0.563206215,1.89202792 0.612590799,1.75613623 C0.989911219,0.71374067 1.96040153,0.0169462147 3.06683818,0.0163869896 C11.4011804,0.0141500893 19.7355226,0.0141500893 28.0698648,0.0163869896 C29.135795,0.0169462147 30.1323648,0.768544729 30.4802764,1.81541409 C30.5191182,1.93285136 30.5618442,2.04917017 30.6029056,2.16604822 L30.6029056,19.1217528 C30.5751614,19.1983666 30.5429782,19.2744212 30.520228,19.3527127 C30.1922922,20.4767552 29.173527,21.271414 28.0371267,21.2719732 C19.7033394,21.2736509 11.3695521,21.2725325 3.03576473,21.2730917 C2.37600888,21.2736509 1.81668684,21.0287103 1.32783495,20.5936332 C0.88170904,20.1971426 0.639225182,19.6815371 0.470540759,19.1217528 L0.470540759,2.16604822 L0.470540759,2.16604822 Z M15.5222962,20.2603351 C19.6850282,20.2603351 23.8483152,20.2614535 28.0110472,20.2597758 C29.0164952,20.2592166 29.5974576,19.6804186 29.5980125,18.6749319 C29.5991223,13.3197925 29.5991223,7.9640939 29.5963479,2.60895448 C29.5963479,1.60234933 29.01705,1.02802517 28.0088277,1.02802517 C19.6927966,1.02690672 11.3773204,1.02690672 3.06184423,1.02802517 C2.05473164,1.02802517 1.4759887,1.60514546 1.4759887,2.61286906 C1.47376917,7.96800847 1.47376917,13.3231479 1.4759887,18.6782873 C1.4759887,19.6809779 2.0625,20.2603351 3.06406376,20.2603351 C7.21680791,20.2608943 11.3695521,20.2603351 15.5222962,20.2603351 L15.5222962,20.2603351 Z" id="Fill-1"></path>
                        <text id="ATM" font-family="SVN-GothamBold, SVN-Gotham" font-size="10" font-weight="bold">
                            <tspan x="3.84072908" y="14.7113944">ATM</tspan>
                        </text>
                    </g>
                </g>
            </g>
        </g>
    </g>
</svg>