<?xml version="1.0" encoding="UTF-8"?>
<svg width="60px" height="60px" viewBox="0 0 60 60" version="1.1" xmlns="http://www.w3.org/2000/svg" xmlns:xlink="http://www.w3.org/1999/xlink">
    <!-- Generator: Sketch 45.2 (43514) - http://www.bohemiancoding.com/sketch -->
    <title>ic-money2</title>
    <desc>Created with Sketch.</desc>
    <defs></defs>
    <g id="Page-1" stroke="none" stroke-width="1" fill="none" fill-rule="evenodd">
        <g id="05-book-tour" transform="translate(-294.000000, -826.000000)">
            <g id="hinh-thuc-thanh-toan" transform="translate(143.000000, 826.000000)">
                <g id="ic-money2" transform="translate(151.000000, 0.000000)">
                    <ellipse id="Oval-204-Copy-18" stroke="#68A236" stroke-width="2" cx="29.5937584" cy="29.8253379" rx="28.5937584" ry="28.8253379"></ellipse>
                    <g id="ic" transform="translate(16.646489, 17.895203)" fill="#68A236">
                        <path d="M22.0021595,3.93566715 C21.1239448,4.7872667 20.2925201,5.59259939 19.4315817,6.42684886 C19.1781951,6.19189992 18.9348865,5.96707185 18.6548655,5.70826656 C19.9491525,4.45183191 21.2297625,3.20913273 22.535567,1.94185428 C23.8413716,3.19250557 25.1313396,4.42725263 26.4529808,5.69380816 C26.1923958,5.94176966 25.9526863,6.17021232 25.6892219,6.4210655 C24.8513186,5.62079326 24.0299719,4.83570233 23.1366403,3.98193402 L23.1366403,24.007536 L3.53013546,24.007536 L3.53013546,18.7482943 L4.58903213,18.7482943 L4.58903213,22.9687002 L22.0021595,22.9687002 L22.0021595,3.93566715" id="Fill-1"></path>
                        <path d="M13.3970944,5.58464727 L14.3732086,5.58464727 C14.3890452,5.6150099 14.4163995,5.64320377 14.4192788,5.67356641 C14.4718278,6.28009614 14.4711079,6.28009614 15.0441071,6.42540302 C16.2383352,6.72975227 17.1331065,7.73316498 17.2216478,8.90284925 C16.6191349,8.98237043 16.0151823,9.06189161 15.3939533,9.14430447 C15.2312676,8.6274168 15.0095543,8.18209819 14.427917,7.95654721 C14.427917,8.58693329 14.4257575,9.16454623 14.4286369,9.74288209 C14.4307964,10.1151858 14.3134612,10.5699024 14.4840652,10.8352139 C14.6395524,11.0766692 15.1117728,11.1128152 15.4450625,11.2393261 C16.4247759,11.6094611 17.2007722,12.1849052 17.4692756,13.2707308 C17.9630914,15.2681583 16.827171,17.0863016 14.8202343,17.5113785 C14.6971402,17.5374036 14.574766,17.5655975 14.4293567,17.5981289 L14.4293567,18.9608327 L13.375499,18.9608327 C13.375499,18.616 13.366141,18.2603234 13.3790982,17.9060927 C13.3877364,17.6906626 13.3164714,17.614756 13.0961979,17.569935 C11.4139127,17.2301627 10.4565146,16.172531 10.2160853,14.3883649 C10.8466723,14.3189646 11.4765395,14.2488413 12.1301616,14.1765494 C12.3137229,14.8756128 12.6513317,15.4481653 13.3315882,15.8327587 C13.351744,15.7004643 13.375499,15.6144369 13.375499,15.5291323 C13.3783784,14.6782557 13.3711799,13.8273791 13.3819776,12.9765025 C13.384857,12.755289 13.3171913,12.6475739 13.0976376,12.5796195 C12.7895426,12.4834711 12.4857666,12.3576831 12.2007068,12.2044241 C10.1016295,11.0759462 9.87415745,8.10980621 11.801191,6.85192572 C12.1510372,6.62348305 12.5764675,6.48106785 12.9875008,6.38853411 C13.3035142,6.31768797 13.4309273,6.20997291 13.3812578,5.89261111 C13.3668608,5.80369197 13.3891761,5.7097124 13.3970944,5.58464727 L13.3970944,5.58464727 Z M14.4480728,15.9130028 C15.2190302,15.811794 15.7754728,15.1495994 15.7517178,14.4021003 C15.7286827,13.6770118 15.1923958,13.1080739 14.4480728,13.0393965 L14.4480728,15.9130028 L14.4480728,15.9130028 Z M13.3596623,7.95437845 C12.721157,8.15028972 12.3245206,8.70982966 12.3619528,9.30768435 C12.398665,9.88746605 12.8291342,10.4036308 13.3596623,10.4889353 L13.3596623,7.95437845 L13.3596623,7.95437845 Z" id="Fill-2"></path>
                        <path d="M4.76539493,15.7322728 C5.57378444,14.8871795 6.38217394,14.0428092 7.21431843,13.1731366 C7.51593482,13.4601358 7.75780381,13.6893014 7.96655978,13.8881043 C6.6953079,15.2016497 5.43557359,16.5029053 4.15784307,17.8229569 C2.8419606,16.5296534 1.55055297,15.2602062 0.256265951,13.9871444 C0.508212813,13.7211099 0.736404686,13.4811005 0.99123094,13.2121743 C1.84137164,14.0457009 2.66631765,14.8553711 3.54885151,15.7221519 L3.54885151,0.00153747737 L22.146849,0.00153747737 C22.146849,0.27624701 22.170604,0.565414939 22.1317322,0.84590783 C22.1209345,0.923260251 21.9251358,1.02808363 21.8128395,1.02952947 C20.9079903,1.04471078 20.0024213,1.03892742 19.0961325,1.03892742 C14.4063216,1.03892742 9.71579085,1.0382045 5.02526013,1.0382045 C4.91224396,1.0382045 4.7992278,1.0490483 4.67325437,1.05555458 L4.67325437,15.6650413 C4.70420784,15.6874518 4.73444146,15.7098623 4.76539493,15.7322728" id="Fill-3"></path>
                    </g>
                </g>
            </g>
        </g>
    </g>
</svg>