<?xml version="1.0" encoding="UTF-8"?>
<svg width="60px" height="60px" viewBox="0 0 60 60" version="1.1" xmlns="http://www.w3.org/2000/svg" xmlns:xlink="http://www.w3.org/1999/xlink">
    <!-- Generator: Sketch 45.2 (43514) - http://www.bohemiancoding.com/sketch -->
    <title>ic-money1</title>
    <desc>Created with Sketch.</desc>
    <defs></defs>
    <g id="Page-1" stroke="none" stroke-width="1" fill="none" fill-rule="evenodd">
        <g id="05-book-tour" transform="translate(-152.000000, -826.000000)">
            <g id="hinh-thuc-thanh-toan" transform="translate(143.000000, 826.000000)">
                <g id="ic-money1" transform="translate(9.000000, 0.000000)">
                    <circle id="Oval-204-Copy-23" stroke="#68A236" stroke-width="2" cx="30" cy="30" r="29"></circle>
                    <g id="ic" transform="translate(15.787315, 19.320325)" fill="#68A236">
                        <path d="M15.8880536,17.254439 C15.5768179,17.3809682 15.2936486,17.4936069 15.0127346,17.6107917 C13.4006743,18.2838461 11.7868599,18.9533648 10.178809,19.6360163 C9.88987607,19.7587572 9.63928376,19.7595148 9.35711682,19.6160646 C6.46302624,18.1439316 3.56492619,16.6801329 0.668329688,15.2135561 C0.233050847,14.9930771 0.0909650082,14.6208136 0.305472025,14.2743105 C0.486900857,13.9813487 0.809914343,13.9030572 1.16500364,14.0818649 C2.54651905,14.7768915 3.92602971,15.4759589 5.30604155,16.1740161 C6.72038455,16.8897521 8.1359805,17.6032151 9.5468152,18.3255174 C9.72573811,18.4171942 9.87408876,18.423003 10.0597777,18.3447114 C11.9171679,17.5615438 13.777064,16.7839323 15.6402178,16.0144025 C15.8299162,15.936111 15.9003326,15.8408984 15.8930654,15.6338047 C15.8772781,15.180219 15.8883042,14.7253706 15.8883042,14.2323866 C15.7572444,14.2844126 15.6522462,14.3233058 15.5492528,14.3669975 C13.7625296,15.1201114 11.9740523,15.8696895 10.1908374,16.6316427 C9.89263259,16.7591821 9.63377073,16.7574142 9.34183069,16.6089129 C6.47380171,15.1496601 3.60126207,13.6992467 0.730225989,12.2463078 C0.670083835,12.2160014 0.608939311,12.1877154 0.551052488,12.1536207 C0.232299071,11.9669839 0.122289047,11.6174501 0.284422271,11.3103454 C0.439037726,11.0176361 0.785105704,10.8964106 1.10110261,11.0492053 C1.61982869,11.2999907 2.1307864,11.5674446 2.64500182,11.8275745 C4.95947239,12.9981588 7.27268999,14.1707637 9.59167122,15.3322561 C9.70794605,15.3905959 9.89188081,15.4022134 10.010411,15.3527129 C11.8983734,14.5680299 13.7800711,13.7679412 15.6662794,12.9784597 C15.8314197,12.9092601 15.8995808,12.8281905 15.8928148,12.6410485 C15.8772781,12.2162539 15.8880536,11.7907017 15.8880536,11.3262562 C15.7579962,11.3767669 15.6532486,11.415155 15.5505057,11.458089 C13.7707992,12.2031212 11.9893384,12.9438599 10.2138919,13.6994993 C9.89513851,13.8351204 9.62550118,13.8293116 9.31301258,13.6699505 C6.53168854,12.2518639 3.7438491,10.8469101 0.957513213,9.43842059 C0.837730089,9.3778078 0.714689266,9.32401396 0.594655549,9.26390628 C0.339803171,9.13661944 0.197967924,8.940133 0.211499909,8.64136249 C0.224280117,8.35319921 0.38415801,8.17969512 0.632244396,8.07513807 C1.79123383,7.58695261 2.9519774,7.10432332 4.10996446,6.61411743 C7.26542282,5.27836322 10.4193776,3.93882071 13.574836,2.60306649 C15.4397439,1.81333244 17.3074084,1.02965966 19.1718152,0.238662835 C19.4171451,0.134358337 19.6542054,0.115164288 19.8930199,0.235379642 C22.4841443,1.53931214 25.074517,2.84475997 27.6653909,4.14869247 C28.0513031,4.34290593 28.4377164,4.53711939 28.8283898,4.72097817 C29.0912612,4.84472927 29.2423683,5.04853975 29.2338482,5.33215707 C29.2255786,5.61526927 29.062443,5.80569444 28.7943093,5.9188383 C27.0514398,6.65250553 25.3130809,7.39678 23.5682067,8.12564872 C23.3542008,8.21505258 23.2822808,8.3289541 23.2925551,8.55599948 C23.3108484,8.94973002 23.297567,9.34472333 23.297567,9.78391345 C23.4381493,9.72986705 23.5351285,9.69551981 23.6296018,9.65586895 C25.1524512,9.0179194 26.6742983,8.37744432 28.198902,7.74353563 C28.3465008,7.68241774 28.5103882,7.62710858 28.6662566,7.62811879 C28.9331374,7.62963411 29.1571669,7.85238609 29.2065336,8.11024297 C29.2656734,8.41861051 29.1366184,8.68379143 28.8321487,8.81511913 C28.0916484,9.1340939 27.3463869,9.44170378 26.6026289,9.75335451 C25.5844724,10.179917 24.5683206,10.6115305 23.545904,11.0274857 C23.3531985,11.1057772 23.2862903,11.2075562 23.2928057,11.4126295 C23.3070895,11.856113 23.2973164,12.3003542 23.2973164,12.795106 C23.4288773,12.7451005 23.5228495,12.7127737 23.6140651,12.6743856 C25.1797658,12.0142113 26.7457171,11.3545422 28.3101649,10.6918424 C28.562762,10.5847599 28.7980682,10.590316 29.010821,10.7726595 C29.1955076,10.9310104 29.2506379,11.1416398 29.2040277,11.3767669 C29.1536586,11.6318457 28.972731,11.7591325 28.7474485,11.8535875 C27.2426417,12.4854757 25.7400902,13.1221625 24.2370375,13.757334 C23.980431,13.8656793 23.7208174,13.9674583 23.4707263,14.0891889 C23.3990569,14.1240413 23.3093448,14.2169809 23.3070895,14.2856754 C23.2923045,14.7289064 23.2995717,15.1726424 23.2995717,15.6638585 C23.4394022,15.6095596 23.5428968,15.5721817 23.6446373,15.5295002 C25.1943002,14.8809434 26.743963,14.2328918 28.2926235,13.582062 C28.5527383,13.4727064 28.7980682,13.4674028 29.0193412,13.6623739 C29.2025241,13.8242606 29.252392,14.0356477 29.2017724,14.269512 C29.1468927,14.5238331 28.9602014,14.6478368 28.7369236,14.7410289 C27.0449244,15.4471678 25.3539275,16.1560849 23.6629306,16.8647493 C19.1748223,18.7452609 14.6862129,20.6242572 10.2008611,22.5113352 C9.89112903,22.6416527 9.62800711,22.6355914 9.32704574,22.4825441 C6.45951795,21.021776 3.58647713,19.5718678 0.714939858,18.1189288 C0.672339165,18.0972092 0.628485511,18.0772575 0.586386003,18.0540226 C0.241570986,17.8641026 0.11827957,17.5206301 0.279661017,17.2016554 C0.439789502,16.8857112 0.794127028,16.7763557 1.14470567,16.9518802 C2.15810097,17.4592597 3.16848916,17.9737107 4.17987972,18.4853836 C5.98013486,19.3958381 7.77838527,20.3100809 9.58365227,21.2096757 C9.70819665,21.2718038 9.90541279,21.2776125 10.0342172,21.2245763 C11.9154137,20.4484801 13.7895936,19.6554629 15.6692865,18.8755784 C15.8389375,18.805116 15.8985785,18.7210158 15.8923137,18.5376621 C15.8782805,18.1232222 15.8880536,17.7077721 15.8880536,17.254439 L15.8880536,17.254439 Z M8.96619282,5.90520042 C9.09349371,5.9771781 9.16365956,6.02112237 9.23758429,6.0582477 C11.5726034,7.22807442 13.9063696,8.40017412 16.2438947,9.56444467 C17.1740933,10.0278799 17.120216,9.93241477 17.1154547,10.9759649 C17.1069346,12.8711246 17.1126982,14.7665368 17.1124476,16.661949 L17.1124476,18.2224757 C17.1821123,18.2174246 17.2124339,18.2227282 17.2362402,18.2126261 C18.7944232,17.5612912 20.3531073,16.9112191 21.9065291,16.2490245 C21.9812056,16.2172027 22.0543785,16.0782985 22.0546291,15.9888946 C22.0621469,13.4636145 22.0621469,10.9383344 22.052875,8.41305433 C22.0526244,8.31582133 21.9731866,8.17262363 21.88999,8.12842681 C19.2507518,6.72978683 16.6070029,5.33998622 13.9609987,3.95447901 C13.8788044,3.91154495 13.7497494,3.88982537 13.6690587,3.92341496 C12.119897,4.56944621 10.5744943,5.22532703 8.96619282,5.90520042 L8.96619282,5.90520042 Z M2.3232413,8.71662336 C2.38162931,8.75829465 2.41019683,8.78481274 2.44352561,8.80173381 C4.841694,10.0155048 7.23936122,11.2305385 9.64229087,12.4349651 C9.74152542,12.4847181 9.90491161,12.4703225 10.0139193,12.425368 C11.6011709,11.77075 13.1841626,11.1060298 14.767906,10.4425724 C14.8315564,10.4160543 14.8909468,10.3789289 14.9796565,10.3324591 C14.9052305,10.2882623 14.8666393,10.2619968 14.8252916,10.2410349 C12.4223619,9.037366 10.0199335,7.83243438 7.61249317,6.63735233 C7.51225624,6.58759934 7.3506242,6.59467083 7.24362129,6.63886765 C6.26806543,7.04093245 5.29852378,7.45739278 4.3269774,7.8690546 C3.66641607,8.14913617 3.00535356,8.42820753 2.3232413,8.71662336 L2.3232413,8.71662336 Z M15.281119,3.2341971 C15.3851148,3.29506244 15.4252096,3.32057032 15.4670585,3.34254245 C17.8198697,4.58106366 20.1719291,5.82135274 22.5297521,7.05078203 C22.6357527,7.10583864 22.8111673,7.10205034 22.9251868,7.05457033 C24.2352834,6.50880272 25.5401176,5.94939724 26.8457035,5.3925173 C26.9221341,5.35993792 26.9948059,5.31877174 27.0975488,5.26725088 C27.0406643,5.23012555 27.0133497,5.20840597 26.9827775,5.19300022 C24.5382495,3.96559135 22.0942227,2.73742483 19.6461864,1.51784512 C19.5609851,1.47541617 19.4226581,1.48703362 19.3294378,1.52466406 C18.7605932,1.75499263 18.1980135,2.00097951 17.6329278,2.24040001 C16.8678695,2.56442584 16.10231,2.88718892 15.281119,3.2341971 L15.281119,3.2341971 Z" id="Fill-1"></path>
                        <path d="M13.8860716,6.18452433 C14.2895252,6.54037188 14.4629351,6.54138209 14.7999818,6.28024202 C15.2718471,5.91403979 15.8033534,5.76073995 16.3927465,5.84029423 C17.1856206,5.94788192 17.6800392,6.49668017 17.739179,7.29904189 C17.7464461,7.39804277 17.8023282,7.51497493 17.8732459,7.58392197 C18.1245899,7.82763587 18.1899945,8.11327361 18.0316202,8.39133475 C17.8770047,8.66308207 17.5793011,8.75425379 17.2575406,8.65575802 C17.1525424,8.62368376 17.0264944,8.64464568 16.9124749,8.66106164 C16.566407,8.71030953 16.2200884,8.82092786 15.8767769,8.81082573 C15.4723209,8.79870317 15.2360124,8.42972285 15.3169537,8.058217 C15.3938855,7.70438988 15.73845,7.50184216 16.1241115,7.62003709 C16.338368,7.68570093 16.4468744,7.63771581 16.5200474,7.43365278 C16.5982322,7.21494165 16.4676736,7.14245886 16.304538,7.0714914 C16.0391607,6.95607455 15.8256561,7.04169011 15.6146574,7.21039569 C15.1029479,7.61927943 14.5170631,7.76020415 13.8818116,7.62231006 C13.1791507,7.470273 12.7338482,6.87727794 12.7223209,6.15371283 C12.7203162,6.02667854 12.6654365,5.88171297 12.5900082,5.77841868 C12.4058229,5.52738074 12.3807636,5.24300576 12.5571806,5.00055463 C12.7298387,4.76315456 13.0267906,4.66819453 13.2991844,4.8083616 C13.4966512,4.90988801 13.6673045,4.89498737 13.8690313,4.83942565 C14.3584381,4.70481476 14.7526198,4.92579886 14.797977,5.33544026 C14.8388236,5.7021476 14.6032668,5.98020874 14.2288819,6.03753833 C14.1101011,6.05597472 14.0000911,6.13376113 13.8860716,6.18452433" id="Fill-2"></path>
                    </g>
                </g>
            </g>
        </g>
    </g>
</svg>