<?xml version="1.0" encoding="UTF-8"?>
<svg width="60px" height="60px" viewBox="0 0 60 60" version="1.1" xmlns="http://www.w3.org/2000/svg" xmlns:xlink="http://www.w3.org/1999/xlink">
    <!-- Generator: Sketch 45.2 (43514) - http://www.bohemiancoding.com/sketch -->
    <title>ic-money1-active</title>
    <desc>Created with Sketch.</desc>
    <defs></defs>
    <g id="Page-1" stroke="none" stroke-width="1" fill="none" fill-rule="evenodd">
        <g id="05-book-tour" transform="translate(-152.000000, -826.000000)">
            <g id="hinh-thuc-thanh-toan" transform="translate(143.000000, 826.000000)">
                <g id="ic-money1-active" transform="translate(9.000000, 0.000000)">
                    <ellipse id="Oval-204-Copy-23" fill="#68A236" cx="29.5937584" cy="29.8253379" rx="29.5937584" ry="29.8253379"></ellipse>
                    <g id="ic" transform="translate(15.536723, 19.013653)" fill="#FFFFFF">
                        <path d="M15.6358623,16.980559 C15.3295669,17.1050798 15.0508923,17.2159306 14.7744373,17.3312553 C13.1879652,17.9936263 11.5997668,18.6525178 10.0172406,19.3243335 C9.73289391,19.4451261 9.48627926,19.4458717 9.20859116,19.3046985 C6.36043853,17.8559327 3.50834006,16.4153689 0.657721281,14.9720711 C0.229351628,14.7550917 0.0895211192,14.3887372 0.300623262,14.0477341 C0.479172272,13.7594225 0.79705856,13.6823737 1.14651152,13.8583432 C2.50609811,14.5423377 3.86371177,15.2303088 5.22181867,15.9172857 C6.61371177,16.6216608 8.00683795,17.323799 9.39527845,18.0346362 C9.57136131,18.1248578 9.71735719,18.1305743 9.90009865,18.0535256 C11.7280065,17.2827891 13.5583804,16.5175207 15.3919604,15.7602056 C15.5786477,15.6831568 15.6479464,15.5894556 15.6407945,15.3856491 C15.6252578,14.9392632 15.6361089,14.4916346 15.6361089,14.0064757 C15.5071294,14.0576759 15.4037979,14.0959518 15.3024392,14.13895 C13.5440768,14.8801096 11.783988,15.6177896 10.0290781,16.3676483 C9.73560667,16.4931633 9.48085374,16.4914235 9.19354766,16.3452793 C6.37104296,14.9091893 3.54409918,13.4817983 0.7186351,12.0519219 C0.659447583,12.0220966 0.599273608,11.9942596 0.542305623,11.9607061 C0.228611784,11.7770317 0.120347951,11.4330462 0.279907632,11.1308161 C0.432068873,10.842753 0.772643709,10.7234517 1.08362479,10.8738211 C1.59411712,11.1206258 2.0969644,11.3838344 2.60301767,11.6398352 C4.88075061,12.7918389 7.15725047,13.9458309 9.43942247,15.088887 C9.55385167,15.1463007 9.73486683,15.1577338 9.85151556,15.1090191 C11.7095104,14.3367914 13.5613398,13.5494024 15.4176083,12.7724524 C15.5801273,12.7043512 15.6472065,12.6245684 15.6405479,12.440397 C15.6252578,12.0223451 15.6358623,11.6035477 15.6358623,11.1464744 C15.5078692,11.1961833 15.4047843,11.233962 15.3036723,11.2762146 C13.552215,12.0094208 11.7990315,12.7384018 10.0517667,13.4820469 C9.73807282,13.6155153 9.47271545,13.6097988 9.16518698,13.4529672 C6.42801094,12.0573899 3.68442292,10.674737 0.942314591,9.28860439 C0.824432786,9.22895371 0.703344991,9.17601374 0.585216573,9.11686015 C0.33440947,8.99159373 0.194825576,8.79822612 0.208142767,8.504198 C0.220720115,8.22060875 0.378060264,8.04985869 0.622208771,7.94696127 C1.76280154,7.46652479 2.90512062,6.99155628 4.04472693,6.50913144 C7.15009865,5.19457968 10.2539907,3.87629974 13.3593624,2.56174798 C15.1946686,1.78454938 17.0326877,1.01331585 18.8675007,0.234874536 C19.1089364,0.132225665 19.3422339,0.113336284 19.5772576,0.231643457 C22.1272532,1.51487862 24.6765088,2.79960505 27.2262577,4.08284021 C27.6060443,4.27397092 27.9863241,4.46510162 28.3707963,4.646042 C28.6294951,4.7678288 28.7782037,4.9684042 28.7698189,5.24751965 C28.7616806,5.52613802 28.6011344,5.71354056 28.3372567,5.82488848 C26.6220518,6.5469102 24.911286,7.27937079 23.1941082,7.99667017 C22.9834992,8.08465492 22.9127208,8.19674848 22.922832,8.42018997 C22.9408349,8.80767081 22.9277643,9.19639438 22.9277643,9.62861324 C23.0661151,9.57542472 23.161555,9.54162267 23.2545287,9.50260119 C24.753206,8.87477782 26.2508968,8.24446902 27.7513003,7.62062237 C27.8965564,7.5604746 28.0578423,7.50604336 28.2112367,7.50703754 C28.4738813,7.50852881 28.6943548,7.72774504 28.7429379,7.98150896 C28.8011389,8.28498177 28.6741324,8.54595347 28.3744956,8.67519661 C27.6457493,8.98910829 26.9123173,9.29183547 26.180365,9.59853936 C25.1783697,10.018331 24.1783472,10.4430935 23.1721594,10.8524463 C22.9825128,10.9294951 22.9166667,11.0296585 22.9230786,11.2314766 C22.9371357,11.6679207 22.9275177,12.1051105 22.9275177,12.5920091 C23.0569904,12.5427973 23.1494709,12.5109836 23.2392386,12.4732048 C24.780087,11.8235096 26.321182,11.1743114 27.8607972,10.5221307 C28.1093848,10.4167478 28.340956,10.4222158 28.5503318,10.6016649 C28.7320868,10.7575023 28.786342,10.9647884 28.7404717,11.1961833 C28.6909022,11.4472132 28.5128464,11.5724796 28.2911398,11.6654353 C26.8102188,12.2872936 25.3315174,12.9138742 23.8523227,13.5389636 C23.5997893,13.6455892 23.3442965,13.7457526 23.0981751,13.865551 C23.0276433,13.8998502 22.9393552,13.9913145 22.9371357,14.0589186 C22.9225854,14.4951142 22.9297372,14.9318069 22.9297372,15.4152259 C23.0673482,15.3617888 23.1692001,15.3250042 23.2693256,15.2830002 C24.7943906,14.644738 26.3194557,14.0069728 27.8435342,13.3664737 C28.0995202,13.2588539 28.340956,13.2536345 28.5587167,13.4455109 C28.738992,13.6048279 28.7880683,13.8128596 28.7382522,14.0430118 C28.6842436,14.2932961 28.5005156,14.4153314 28.280782,14.5070443 C26.6156399,15.2019747 24.9514842,15.8996391 23.2873285,16.5970549 C18.87046,18.4477171 14.4530984,20.296888 10.0389427,22.1540124 C9.73412698,22.2822614 9.4751816,22.2762963 9.1789974,22.1256783 C6.35698592,20.6880971 3.52954892,19.2612032 0.703591606,17.8313268 C0.661667115,17.809952 0.618509551,17.7903169 0.577078289,17.7674509 C0.237736526,17.5805454 0.116402116,17.2425249 0.275221953,16.9286132 C0.432808717,16.6176841 0.781521837,16.5100643 1.12653574,16.6828027 C2.1238454,17.1821286 3.11819568,17.6884137 4.11353242,18.1919648 C5.88521209,19.0879677 7.65491884,19.9876987 9.4315308,20.8730142 C9.55409829,20.9341561 9.74818402,20.9398726 9.87494395,20.8876783 C11.7262802,20.1239011 13.5707111,19.3434714 15.4205677,18.5759661 C15.5875258,18.5066221 15.6462201,18.4238568 15.6400547,18.2434135 C15.6262443,17.835552 15.6358623,17.4266964 15.6358623,16.980559 L15.6358623,16.980559 Z M8.8238723,5.81146708 C8.94915254,5.88230226 9.01820465,5.925549 9.09095597,5.96208504 C11.3889113,7.11334308 13.6856336,8.26683802 15.9860551,9.41262808 C16.9014887,9.86870721 16.8484665,9.77475739 16.8437808,10.8017432 C16.8353959,12.666821 16.8410681,14.5321473 16.8408215,16.3974737 L16.8408215,17.93323 C16.9093803,17.9282591 16.9392207,17.9334786 16.9626491,17.9235368 C18.496099,17.2825406 20.0300421,16.6427871 21.5588064,15.9911034 C21.6322976,15.9597868 21.704309,15.8230874 21.7045556,15.7351026 C21.7119541,13.2499063 21.7119541,10.7647101 21.7028293,8.27951379 C21.7025827,8.18382416 21.6244059,8.04289944 21.5425298,7.99940416 C18.9451843,6.62296482 16.3433997,5.25522453 13.7393956,3.8917095 C13.658506,3.84945694 13.5314994,3.82808211 13.4520895,3.86113853 C11.9275177,4.49691532 10.4066451,5.14238534 8.8238723,5.81146708 L8.8238723,5.81146708 Z M2.28636445,8.57826426 C2.34382567,8.6192741 2.37193974,8.64537127 2.40473949,8.66202375 C4.76484172,9.85652853 7.12445072,11.052276 9.48923863,12.2375847 C9.58689804,12.2865479 9.74769079,12.2723809 9.85496816,12.22814 C11.4170254,11.5839127 12.9748901,10.9297436 14.5334948,10.2768172 C14.5961349,10.2507201 14.6545825,10.214184 14.7418841,10.1684519 C14.6686396,10.1249566 14.6306609,10.0991079 14.5899695,10.0784788 C12.2251816,8.89391575 9.86088692,7.70811003 7.49165994,6.53199754 C7.39301408,6.48303427 7.23394763,6.48999352 7.12864317,6.5334888 C6.16857233,6.92917162 5.21442023,7.33902147 4.25829522,7.74414898 C3.60821899,8.01978481 2.95764954,8.29442646 2.28636445,8.57826426 L2.28636445,8.57826426 Z M15.0385616,3.18286064 C15.1409066,3.24275986 15.180365,3.26786285 15.2215496,3.28948622 C17.5370146,4.50834836 19.8517398,5.72895031 22.172137,6.93886485 C22.276455,6.99304755 22.4490853,6.98931938 22.561295,6.94259302 C23.8505964,6.40548839 25.1347189,5.85496237 26.4195812,5.30692178 C26.4947987,5.27485954 26.5663169,5.23434679 26.6674289,5.18364372 C26.6114474,5.14710768 26.5845664,5.12573286 26.5544794,5.11057164 C24.1487535,3.90264546 21.7435208,2.69397364 19.3343422,1.49375234 C19.2504932,1.45199686 19.1143619,1.46342991 19.0226213,1.50046304 C18.462806,1.72713561 17.9091561,1.96921793 17.3530401,2.2048381 C16.6001255,2.52372067 15.8467178,2.84136052 15.0385616,3.18286064 L15.0385616,3.18286064 Z" id="Fill-1"></path>
                        <path d="M13.6656578,6.08635728 C14.0627074,6.43655645 14.2333647,6.43755063 14.5650614,6.18055564 C15.0294368,5.82016614 15.5525065,5.66929964 16.1325442,5.74759115 C16.9128329,5.8534711 17.3994036,6.39355826 17.4576047,7.18318408 C17.4647565,7.28061352 17.5197516,7.39568961 17.5895435,7.46354225 C17.836898,7.70338768 17.9012645,7.98449149 17.745404,8.25813896 C17.5932428,8.52557283 17.3002646,8.61529739 16.9836113,8.51836504 C16.8802798,8.48679989 16.7562326,8.50742908 16.644023,8.52358447 C16.3034481,8.57205065 15.9626267,8.68091313 15.6247646,8.67097135 C15.2267285,8.65904121 14.9941709,8.29591773 15.0738275,7.93030879 C15.1495382,7.58209797 15.4886333,7.3827653 15.8681733,7.49908412 C16.0790288,7.56370568 16.1858129,7.51648223 16.2578244,7.31565829 C16.3347682,7.10041877 16.2062819,7.0290865 16.0457358,6.9592455 C15.7845709,6.84566067 15.5744552,6.92991725 15.3668057,7.09594497 C14.8632185,7.49833848 14.2866335,7.6370263 13.6614653,7.50132102 C12.9699579,7.35169724 12.5317236,6.76811479 12.5203793,6.05603485 C12.5184064,5.93101698 12.4643978,5.78835244 12.3901668,5.68669775 C12.208905,5.43964454 12.1842436,5.15978345 12.3578603,4.92118075 C12.5277778,4.68754893 12.8200161,4.59409621 13.0880863,4.7320384 C13.2824186,4.83195328 13.4503632,4.81728915 13.648888,4.76260937 C14.1305264,4.63013516 14.5184513,4.84761158 14.5630885,5.25075073 C14.6032867,5.61163732 14.3714689,5.88528479 14.0030266,5.94170439 C13.8861313,5.95984814 13.7778675,6.03639984 13.6656578,6.08635728" id="Fill-2"></path>
                    </g>
                </g>
            </g>
        </g>
    </g>
</svg>