<?xml version="1.0" encoding="UTF-8"?>
<svg width="60px" height="60px" viewBox="0 0 60 60" version="1.1" xmlns="http://www.w3.org/2000/svg" xmlns:xlink="http://www.w3.org/1999/xlink">
    <!-- Generator: Sketch 45.2 (43514) - http://www.bohemiancoding.com/sketch -->
    <title>ic-money4</title>
    <desc>Created with Sketch.</desc>
    <defs></defs>
    <g id="Page-1" stroke="none" stroke-width="1" fill="none" fill-rule="evenodd">
        <g id="05-book-tour" transform="translate(-578.000000, -826.000000)">
            <g id="hinh-thuc-thanh-toan" transform="translate(143.000000, 826.000000)">
                <g id="ic-money4" transform="translate(435.000000, 0.000000)">
                    <ellipse id="Oval-204-Copy-19" stroke="#68A236" stroke-width="2" cx="29.5937584" cy="29.8253379" rx="28.5937584" ry="28.8253379"></ellipse>
                    <g id="ic" transform="translate(14.057035, 19.183115)" fill="#68A236">
                        <path d="M0.470540759,2.16604822 C0.517705811,2.0295973 0.563206215,1.89202792 0.612590799,1.75613623 C0.989911219,0.71374067 1.96040153,0.0169462147 3.06683818,0.0163869896 C11.4011804,0.0141500893 19.7355226,0.0141500893 28.0698648,0.0163869896 C29.135795,0.0169462147 30.1323648,0.768544729 30.4802764,1.81541409 C30.5191182,1.93285136 30.5618442,2.04917017 30.6029056,2.16604822 L30.6029056,19.1217528 C30.5751614,19.1983666 30.5429782,19.2744212 30.520228,19.3527127 C30.1922922,20.4767552 29.173527,21.271414 28.0371267,21.2719732 C19.7033394,21.2736509 11.3695521,21.2725325 3.03576473,21.2730917 C2.37600888,21.2736509 1.81668684,21.0287103 1.32783495,20.5936332 C0.88170904,20.1971426 0.639225182,19.6815371 0.470540759,19.1217528 L0.470540759,2.16604822 L0.470540759,2.16604822 Z M15.5222962,20.2603351 C19.6850282,20.2603351 23.8483152,20.2614535 28.0110472,20.2597758 C29.0164952,20.2592166 29.5974576,19.6804186 29.5980125,18.6749319 C29.5991223,13.3197925 29.5991223,7.9640939 29.5963479,2.60895448 C29.5963479,1.60234933 29.01705,1.02802517 28.0088277,1.02802517 C19.6927966,1.02690672 11.3773204,1.02690672 3.06184423,1.02802517 C2.05473164,1.02802517 1.4759887,1.60514546 1.4759887,2.61286906 C1.47376917,7.96800847 1.47376917,13.3231479 1.4759887,18.6782873 C1.4759887,19.6809779 2.0625,20.2603351 3.06406376,20.2603351 C7.21680791,20.2608943 11.3695521,20.2603351 15.5222962,20.2603351 L15.5222962,20.2603351 Z" id="Fill-1"></path>
                        <path d="M9.37308313,12.1498937 C9.44355327,11.9972252 9.48683414,11.9055123 9.52845036,11.8126809 C10.1998588,10.329616 10.8740416,8.84766953 11.5371267,7.36124925 C11.6236885,7.1660797 11.7335553,7.10232804 11.9405266,7.11127564 C12.3339387,7.12805239 12.7290153,7.11630867 13.1684826,7.11630867 C13.1135492,7.24828579 13.0785916,7.34279483 13.0358656,7.43338929 C12.0975585,9.42982284 11.1553672,11.4240195 10.2242736,13.4238084 C10.1316082,13.6228925 10.0300646,13.7101316 9.80589185,13.7006248 C9.37974173,13.6821704 8.95248184,13.6950326 8.50691082,13.6950326 C8.35931195,12.8310298 8.21504237,11.9921922 8.07299233,11.1539138 C7.94481437,10.396723 7.8099778,9.6406507 7.69733656,8.88122303 C7.66626312,8.67207285 7.57748184,8.62230182 7.38937651,8.63180865 C7.14966707,8.64467082 6.90829298,8.64075625 6.66802865,8.63236787 C6.29292776,8.6195057 6.00660815,8.30354352 5.99551049,7.90090146 C5.98496772,7.51112158 6.26795803,7.13420387 6.6275222,7.12413782 C7.3277845,7.10456494 8.02804681,7.12022324 8.728864,7.11351254 C8.93583535,7.11127564 8.92751211,7.25164114 8.93916465,7.38865128 C9.07011703,8.93099407 9.20106941,10.4733369 9.33257667,12.0151204 C9.33424132,12.0352525 9.34367433,12.0542662 9.37308313,12.1498937" id="Fill-2"></path>
                        <path d="M25.480226,13.6939141 C25.048527,13.6939141 24.6517857,13.6849665 24.2561542,13.6978287 C24.0613902,13.7039802 24.0391949,13.5865429 24.0158898,13.4433813 C23.9326574,12.9344864 23.8377724,12.4267101 23.763973,11.9161376 C23.7378935,11.7349486 23.6729722,11.6633678 23.4854217,11.6678416 C23.0254237,11.6790261 22.5648709,11.6807038 22.1048729,11.6672824 C21.9178773,11.6616902 21.852956,11.7416593 21.8107849,11.9088676 C21.6787228,12.428947 21.5233555,12.9428748 21.3957324,13.4635134 C21.3524516,13.6419062 21.274768,13.7034209 21.0966505,13.6983879 C20.7115617,13.6877626 20.3259181,13.6950326 19.899768,13.6950326 C19.9413842,13.5759176 19.965799,13.4892377 20.0013115,13.4075909 C20.8841303,11.4072427 21.7708333,9.40857229 22.6464387,7.40542804 C22.7391041,7.1929225 22.8450868,7.09785424 23.0842413,7.11015719 C23.4909705,7.13140774 23.8999193,7.12246014 24.3077583,7.11351254 C24.4753329,7.10959797 24.5491324,7.1638428 24.5741021,7.33720258 C24.8631961,9.34873521 25.1583939,11.3591494 25.4513721,13.370682 C25.4652441,13.4635134 25.4685734,13.5580224 25.480226,13.6939141 L25.480226,13.6939141 Z M23.4504641,8.67878355 C23.4243846,8.6776651 23.3977502,8.67654665 23.3716707,8.6754282 C23.024314,9.49525218 22.6775121,10.3150762 22.327381,11.1421701 L23.6496671,11.1421701 C23.5819713,10.3044509 23.5164952,9.4913376 23.4504641,8.67878355 L23.4504641,8.67878355 Z" id="Fill-3"></path>
                        <path d="M19.9680186,7.41661254 C19.8198648,7.81589925 19.6855831,8.17715865 19.572387,8.4813771 C19.1007365,8.41706621 18.6645985,8.3410116 18.2251312,8.3052212 C18.0686542,8.29291825 17.8916465,8.3521961 17.7462672,8.42377692 C17.3040254,8.64243392 17.2446529,9.09596547 17.6180892,9.42031602 C17.7984262,9.57633982 18.012611,9.69433631 18.2151433,9.82407653 C18.3472054,9.90851952 18.4870359,9.98010033 18.6207627,10.0623064 C19.3559826,10.515838 19.7000101,11.1589468 19.544088,12.0341341 C19.3914952,12.8891892 18.8876614,13.4333152 18.0547821,13.6368732 C17.1314568,13.8616816 16.2353208,13.7800348 15.3491727,13.308608 C15.5039851,12.9227427 15.6510291,12.5575687 15.8052865,12.1733811 C16.3296509,12.4418091 16.8645581,12.6045436 17.4405266,12.5614833 C17.9304883,12.5251337 18.2007163,12.2086123 18.1008374,11.7343894 C18.0619956,11.5487267 17.9160613,11.3574717 17.7667978,11.2305276 C17.5614911,11.0571678 17.3067998,10.9436451 17.073749,10.8032797 C16.3856941,10.3872162 15.8352502,9.87888059 15.9456719,8.97013982 C16.0522094,8.09159721 16.6309524,7.46806125 17.5703692,7.22032453 C18.37273,7.00837823 19.1595541,7.05367546 19.9680186,7.41661254" id="Fill-4"></path>
                        <path d="M14.2743644,13.6771374 L12.906023,13.6771374 C13.2411723,11.4860935 13.5724374,9.31630015 13.9059221,7.13252619 L15.272044,7.13252619 C14.9385593,9.3196555 14.6078491,11.4872119 14.2743644,13.6771374" id="Fill-5"></path>
                    </g>
                </g>
            </g>
        </g>
    </g>
</svg>