<?xml version="1.0" encoding="UTF-8"?>
<svg width="22px" height="25px" viewBox="0 0 22 25" version="1.1" xmlns="http://www.w3.org/2000/svg" xmlns:xlink="http://www.w3.org/1999/xlink">
    <!-- Generator: Sketch 45 (43475) - http://www.bohemiancoding.com/sketch -->
    <title>ic-service3</title>
    <desc>Created with Sketch.</desc>
    <defs></defs>
    <g id="Page-1" stroke="none" stroke-width="1" fill="none" fill-rule="evenodd">
        <g id="06-dichvu" transform="translate(-696.000000, -212.000000)">
            <g id="Group-2" transform="translate(391.000000, 189.000000)">
                <g id="3" transform="translate(280.000000, 0.000000)">
                    <g id="ic_payreceipt" transform="translate(25.000000, 23.000000)">
                        <polygon id="Rectangle-2" stroke="#FFFFFF" stroke-width="2" stroke-linecap="round" stroke-linejoin="round" points="1 1 21 1 21 24 17 22 15 24 13 22 11 24 9 22 7 24 5 22 1 24"></polygon>
                        <path d="M17.6277442,11.0940334 C17.6279597,10.9237683 17.5197546,10.6454218 17.2774788,10.4072622 C17.0397294,10.1739673 16.5911742,9.8975245 15.7934313,9.89731299 L12.9678135,9.94574865 L10.6907652,6.49476076 C10.6351539,6.40931095 10.5388039,6.35833718 10.4353409,6.35833718 L9.13666468,6.35643359 C9.03578825,6.35601057 8.94137826,6.40508076 8.8844736,6.4867234 C8.8277845,6.56857755 8.81571382,6.67306321 8.85257251,6.76506981 L10.2163442,9.98699299 L7.96063519,10.1483747 L7.19975101,9.40174639 C7.14737286,9.3503496 7.02666602,9.36896243 6.95273309,9.36452073 L6.11576049,9.33977413 C6.00884871,9.33300582 5.89396167,9.39413205 5.83296161,9.48063941 C5.77239264,9.56714677 5.75579545,9.6845345 5.79998277,9.77992525 L6.42097635,11.1346432 L5.84330791,12.454885 C5.80300044,12.5473147 5.81183791,12.6541269 5.86831147,12.7383077 C5.87995105,12.7552284 5.89245283,12.7713031 5.90689455,12.7854743 C5.9633681,12.8408898 6.04031871,12.8732507 6.12222692,12.8732507 L6.98420308,12.8734622 C7.06503356,12.8732507 7.14241526,12.8421588 7.19975101,12.7858973 L7.96279067,12.0371539 L10.2075068,12.2063615 L8.86097888,15.4253235 C8.82261135,15.5175416 8.83338875,15.6224503 8.8898623,15.705362 C8.94676696,15.7886967 9.04160804,15.8377669 9.14291557,15.8377669 L10.4340476,15.8386129 C10.5372951,15.8388244 10.633645,15.7870046 10.689903,15.7017663 L12.9680291,12.2416835 L15.7932157,12.2901192 C16.5920364,12.2901192 17.0408071,12.0130418 17.2774788,11.7803815 C17.5197546,11.5422218 17.6277442,11.2636639 17.6277442,11.0940334 Z" id="airplane-copy-2" fill="#FFFFFF" fill-rule="evenodd" transform="translate(11.701380, 11.097522) scale(-1, -1) rotate(145.000000) translate(-11.701380, -11.097522) "></path>
                    </g>
                </g>
            </g>
        </g>
    </g>
</svg>