<?xml version="1.0" encoding="UTF-8"?>
<svg width="28px" height="29px" viewBox="0 0 28 29" version="1.1" xmlns="http://www.w3.org/2000/svg" xmlns:xlink="http://www.w3.org/1999/xlink">
    <!-- Generator: Sketch 45 (43475) - http://www.bohemiancoding.com/sketch -->
    <title>ic-tip5</title>
    <desc>Created with Sketch.</desc>
    <defs></defs>
    <g id="Page-1" stroke="none" stroke-width="1" fill="none" fill-rule="evenodd">
        <g id="08-cam-nangDL" transform="translate(-681.000000, -324.000000)" fill="#FFFFFF">
            <g id="Group-2" transform="translate(260.000000, 304.000000)">
                <g id="4" transform="translate(400.000000, 0.000000)">
                    <g id="Icon/24x24/shirt" transform="translate(20.000000, 20.000000)">
                        <path d="M18.75,16.25 L23.75,16.25 L23.75,13.75 L18.75,13.75 L18.75,16.25 Z M26.25,26.25 L16.25,26.25 L16.25,9.2675 L18.75,11.7675 L24.2675,6.25 L26.25,6.25 L26.25,26.25 Z M3.75,26.25 L3.75,6.25 L5.7325,6.25 L11.25,11.7675 L13.75,9.2675 L13.75,26.25 L3.75,26.25 Z M10,3.0175 L13.2325,6.25 L11.25,8.2325 L8.0175,5 L10,3.0175 Z M20,3.0175 L21.9825,5 L18.75,8.2325 L16.7675,6.25 L20,3.0175 Z M15,4.4825 L13.0175,2.5 L16.9825,2.5 L15,4.4825 Z M26.25,3.75 L24.2675,3.75 L20.5175,0 L9.4825,0 L5.7325,3.75 L3.75,3.75 C2.37125,3.75 1.25,4.87125 1.25,6.25 L1.25,26.25 C1.25,27.62875 2.37125,28.75 3.75,28.75 L26.25,28.75 C27.62875,28.75 28.75,27.62875 28.75,26.25 L28.75,6.25 C28.75,4.87125 27.62875,3.75 26.25,3.75 L26.25,3.75 Z" id="Fill-25"></path>
                    </g>
                </g>
            </g>
        </g>
    </g>
</svg>