<?xml version="1.0" encoding="UTF-8"?>
<svg width="28px" height="27px" viewBox="0 0 28 27" version="1.1" xmlns="http://www.w3.org/2000/svg" xmlns:xlink="http://www.w3.org/1999/xlink">
    <!-- Generator: Sketch 45 (43475) - http://www.bohemiancoding.com/sketch -->
    <title>ic-tip3</title>
    <desc>Created with Sketch.</desc>
    <defs></defs>
    <g id="Page-1" stroke="none" stroke-width="1" fill="none" fill-rule="evenodd">
        <g id="08-cam-nangDL" transform="translate(-481.000000, -326.000000)">
            <g id="Group-2" transform="translate(260.000000, 304.000000)">
                <g id="2" transform="translate(200.000000, 0.000000)">
                    <g id="ic-tip3" transform="translate(21.000000, 22.000000)">
                        <path d="M13.9274691,3.7417292 C13.9274691,3.7417292 8.83633925,3.17474949 6.45403973,4.30984514 L9.90331509,8.85477241 C9.90331509,8.85477241 8.00276421,13.3644768 9.38362411,17.3765115 C9.38362411,17.3765115 3.32094787,16.9424716 0.705247391,18.4445701 C0.705247391,18.4445701 3.59344063,20.2602681 6.45403966,21.3533231 C7.55665802,24.1825405 8.75355657,26.4663666 8.75355657,26.4663666 C10.2769865,23.8825753 10.4781943,18.4445701 10.4781943,18.4445701 C14.5345421,19.8148658 19.1013822,17.9446275 19.1013822,17.9446275 L22.5506586,21.3533231 C23.7015668,18.9990507 24.2752963,13.9678159 24.2752963,13.9678159 C27.7648132,9.37971154 27.1496925,0.901149418 27.1496925,0.901149418 C27.1496925,0.901149418 18.573643,0.296674125 13.9274691,3.7417292 Z" id="Shape" fill="#FFFFFF"></path>
                        <ellipse id="Oval-1" fill="#FF793C" cx="20.8260203" cy="7.15042479" rx="1.72463768" ry="1.70434783"></ellipse>
                    </g>
                </g>
            </g>
        </g>
    </g>
</svg>