<?xml version="1.0" encoding="UTF-8"?>
<svg width="18px" height="39px" viewBox="0 0 18 39" version="1.1" xmlns="http://www.w3.org/2000/svg" xmlns:xlink="http://www.w3.org/1999/xlink">
    <!-- Generator: Sketch 45 (43475) - http://www.bohemiancoding.com/sketch -->
    <title>ic-tip1</title>
    <desc>Created with Sketch.</desc>
    <defs></defs>
    <g id="Page-1" stroke="none" stroke-width="1" fill="none" fill-rule="evenodd">
        <g id="08-cam-nangDL" transform="translate(-286.000000, -320.000000)" fill="#FFFFFF">
            <g id="Group-2" transform="translate(260.000000, 304.000000)">
                <g id="all">
                    <path d="M40.2069296,29.7543691 C38.2681032,26.7279608 35.7405799,21.9106481 35.3368322,17.8876628 C35.6945171,17.7413026 35.9457689,17.3905969 35.9457689,16.9801595 C35.9457689,16.4383821 35.5074741,16 34.9662358,16 C34.4253465,16 33.9860048,16.4383821 33.9860048,16.9801595 C33.9860048,17.3933914 34.243189,17.7454943 34.6043634,17.890108 C34.2002668,21.9134426 31.6727435,26.7290087 29.7360109,29.7543691 C27.72146,32.8981451 24.4761243,36.5208229 26.8120681,43.0504456 C29.147314,49.5800682 29.3120235,54.106407 29.3120235,54.106407 L32.514437,54.106407 C31.6277275,47.8984974 30.4259064,45.2011376 30.0574038,42.1694897 C29.4826653,37.4398534 32.6163336,35.0470906 33.9413378,34.2587014 C33.4248758,33.9293036 33.0814984,33.3543419 33.0814984,32.6962448 C33.0814984,32.2830129 33.2193379,31.9015681 33.4493031,31.5931287 C33.4493031,31.5931287 34.6947443,19.8825633 34.9313397,17.664804 C34.5694673,17.6469893 34.278783,17.3483306 34.278783,16.9801595 C34.278783,16.6001119 34.5869154,16.2930698 34.9662358,16.2930698 C35.3459052,16.2930698 35.6533397,16.6001119 35.6533397,16.9801595 C35.6533397,17.3458854 35.3685876,17.641051 35.0102049,17.6637561 C35.2464514,19.8797688 36.4925905,31.5931287 36.4925905,31.5931287 C36.7218577,31.9015681 36.8589994,32.2830129 36.8589994,32.6962448 C36.8589994,33.3543419 36.5170177,33.9293036 36.0009047,34.2587014 C37.3248621,35.0470906 40.4595772,37.4398534 39.8848387,42.1694897 C39.5163361,45.2011376 38.3134681,47.8984974 37.4278055,54.106407 L40.6291722,54.106407 C40.6291722,54.106407 40.7945796,49.5800682 43.1291276,43.0504456 C45.4661182,36.5208229 42.2197356,32.8981451 40.2069296,29.7543691" id="ic-tip1"></path>
                </g>
            </g>
        </g>
    </g>
</svg>