<?xml version="1.0" encoding="UTF-8"?>
<svg width="30px" height="33px" viewBox="0 0 30 33" version="1.1" xmlns="http://www.w3.org/2000/svg" xmlns:xlink="http://www.w3.org/1999/xlink">
    <!-- Generator: Sketch 45 (43475) - http://www.bohemiancoding.com/sketch -->
    <title>ic-tip6</title>
    <desc>Created with Sketch.</desc>
    <defs></defs>
    <g id="Page-1" stroke="none" stroke-width="1" fill="none" fill-rule="evenodd">
        <g id="08-cam-nangDL" transform="translate(-780.000000, -321.000000)" fill="#FFFFFF">
            <g id="Group-2" transform="translate(260.000000, 304.000000)">
                <g id="5" transform="translate(500.000000, 0.000000)">
                    <path d="M47.2003277,41.5912744 L22.7996661,41.5912744 C22.7526618,41.5912744 22.7074653,41.1460384 22.6658846,41.1460384 L32.5539648,41.1460384 L37.446029,41.1460384 L47.3341092,41.1460384 C47.2925285,41.1460384 47.2473321,41.5912744 47.2003277,41.5912744 L47.2003277,41.5912744 Z M48.8450267,38.9198584 L37.446029,38.9198584 L35.9988386,38.9198584 C36.0101377,38.9198584 36.095559,39.1157623 36.095559,39.0480864 L36.095559,36.6936785 L48.1792829,36.6936785 C48.1969096,36.6936785 48.1621083,36.6945689 48.1792829,36.6936785 C48.1978135,36.6945689 48.1607524,36.6936785 48.1792829,36.6936785 C48.7487583,36.6936785 49.3792488,36.6865547 49.4813928,36.2791637 C49.7168663,35.3441682 49.8009317,34.402494 49.8009317,33.4314343 C49.8009317,25.7315231 43.7789562,19.4398932 36.095559,18.8704364 L36.095559,18.2021372 C36.095559,17.5382903 35.6395267,17 34.9656476,17 C34.2917685,17 33.8357363,17.5382903 33.8357363,18.2021372 L33.8357363,21.1932326 L20.6682013,35.3130016 C20.3427868,35.6651833 20.1986102,35.8575253 20.3938588,36.2929661 C20.5891075,36.7284069 20.9664979,36.6936785 21.449648,36.6936785 L33.8357363,36.6936785 L33.8357363,39.0480864 C33.8357363,39.1157623 33.58354,38.9198584 33.5943872,38.9198584 L32.5539648,38.9198584 L21.1549671,38.9198584 C20.4602976,38.9198584 19.9242677,39.6749787 20.008785,40.3539636 C20.1665207,41.6162076 20.5267364,43.4091729 21.3316853,44.8731089 C23.2019145,48.2747119 26.2232975,49.6055223 26.2232975,49.6055223 L32.8418662,49.6055223 L37.1581276,49.6055223 L43.7766963,49.6055223 C43.7766963,49.6055223 46.7980793,48.3526282 48.6687605,44.9505799 C49.4732574,43.4870892 49.8339251,41.500001 49.9912088,40.237757 C50.0757262,39.5583268 49.5401482,38.9198584 48.8450267,38.9198584 L48.8450267,38.9198584 Z M46.5223809,43.3317019 C45.4471573,45.2880688 43.8679932,46.4888703 43.1095967,46.9341063 L37.1581276,46.9341063 L32.8418662,46.9341063 L26.8908491,46.9341063 C26.1320007,46.4888703 24.5532885,45.2880688 23.4776129,43.3317019 C23.4048466,43.199912 23.3352441,42.9269824 23.2679014,42.9269824 L46.7320925,42.9269824 C46.6647498,42.9269824 46.5951472,43.199912 46.5223809,43.3317019 L46.5223809,43.3317019 Z M33.8357363,34.4674985 L24.2106994,34.4674985 L33.8357363,24.7649157 L33.8357363,34.4674985 L33.8357363,34.4674985 Z M36.095559,21.2840607 C42.4230625,21.846839 47.3603232,26.870882 47.3603232,33.2444352 C47.3603232,33.7292972 47.3006639,34.0222625 47.2432644,34.4674985 L36.095559,34.4674985 L36.095559,21.2840607 L36.095559,21.2840607 Z" id="ic-tip6"></path>
                </g>
            </g>
        </g>
    </g>
</svg>