<?xml version="1.0" encoding="UTF-8"?>
<svg width="24px" height="28px" viewBox="0 0 24 28" version="1.1" xmlns="http://www.w3.org/2000/svg" xmlns:xlink="http://www.w3.org/1999/xlink">
    <!-- Generator: Sketch 45 (43475) - http://www.bohemiancoding.com/sketch -->
    <title>ic-tip7</title>
    <desc>Created with Sketch.</desc>
    <defs></defs>
    <g id="Page-1" stroke="none" stroke-width="1" fill="none" fill-rule="evenodd">
        <g id="08-cam-nangDL" transform="translate(-874.000000, -325.000000)" fill="#FFFFFF">
            <g id="Group-2" transform="translate(260.000000, 304.000000)">
                <g id="6" transform="translate(591.000000, 0.000000)">
                    <g id="Icon/24x24/speaker" transform="translate(20.000000, 20.000000)">
                        <path d="M6.25,26.25 L6.25,3.75 L23.75,3.75 L23.75125,26.25 L6.25,26.25 Z M23.75,1.25 L6.25,1.25 C4.87125,1.25 3.75,2.37125 3.75,3.75 L3.75,26.25 C3.75,27.62875 4.87125,28.75 6.25,28.75 L23.75,28.75 C25.12875,28.75 26.25,27.62875 26.25,26.25 L26.25,3.75 C26.25,2.37125 25.12875,1.25 23.75,1.25 L23.75,1.25 Z" id="Fill-40"></path>
                        <path d="M23.2846802,15.1175417 C23.2849496,14.9047103 23.1496933,14.5567773 22.8468485,14.2590778 C22.5496618,13.9674592 21.9889677,13.6219056 20.9917891,13.6216412 L17.4597669,13.6821858 L14.6134565,9.36845095 C14.5439423,9.26163869 14.4235049,9.19792147 14.2941762,9.19792147 L12.6708308,9.19554199 C12.5447353,9.19501322 12.4267228,9.25635095 12.355592,9.35840425 C12.2847306,9.46072194 12.2696423,9.59132901 12.3157156,9.70633727 L14.0204303,13.7337412 L11.200794,13.9354684 L10.2496888,13.002183 C10.1842161,12.937937 10.0333325,12.961203 9.94091636,12.9556509 L8.89470061,12.9247177 C8.76106089,12.9162573 8.61745209,12.9926651 8.54120201,13.1007993 C8.4654908,13.2089335 8.44474431,13.3556681 8.49997847,13.4749066 L9.27622044,15.168304 L8.55413488,16.8186063 C8.50375056,16.9341433 8.51479739,17.0676587 8.58538933,17.1728846 C8.59993882,17.1940355 8.61556604,17.2141289 8.63361818,17.2318428 C8.70421013,17.3011122 8.80039839,17.3415634 8.90278366,17.3415634 L9.98025385,17.3418278 C10.0812919,17.3415634 10.1780191,17.3026985 10.2496888,17.2323716 L11.2034883,16.2964424 L14.0093835,16.5079518 L12.3262236,20.5316544 C12.2782642,20.646927 12.2917359,20.7780629 12.3623279,20.8817025 C12.4334587,20.9858709 12.5520101,21.0472086 12.6786445,21.0472086 L14.2925596,21.0482662 C14.4216189,21.0485305 14.5420563,20.9837558 14.6123788,20.8772079 L17.4600363,16.5521044 L20.9915197,16.612649 C21.9900455,16.612649 22.5510089,16.2663023 22.8468485,15.9754768 C23.1496933,15.6777773 23.2846802,15.3295799 23.2846802,15.1175417 Z" id="airplane-copy-2" transform="translate(15.876725, 15.121903) scale(-1, -1) rotate(145.000000) translate(-15.876725, -15.121903) "></path>
                    </g>
                </g>
            </g>
        </g>
    </g>
</svg>