<?xml version="1.0" encoding="UTF-8"?>
<svg width="26px" height="24px" viewBox="0 0 26 24" version="1.1" xmlns="http://www.w3.org/2000/svg" xmlns:xlink="http://www.w3.org/1999/xlink">
    <!-- Generator: Sketch 45 (43475) - http://www.bohemiancoding.com/sketch -->
    <title>ic-tip2</title>
    <desc>Created with Sketch.</desc>
    <defs></defs>
    <g id="Page-1" stroke="none" stroke-width="1" fill="none" fill-rule="evenodd">
        <g id="08-cam-nangDL" transform="translate(-382.000000, -327.000000)" fill="#FFFFFF">
            <g id="Group-2" transform="translate(260.000000, 304.000000)">
                <g id="1" transform="translate(100.000000, 0.000000)">
                    <g id="ic-tip2" transform="translate(22.000000, 23.000000)">
                        <path d="M16.3345,16.9218 C16.3345,15.9558 17.1185,15.1718 18.0845,15.1718 C19.0505,15.1718 19.8345,15.9558 19.8345,16.9218 C19.8345,17.8878 19.0505,18.6718 18.0845,18.6718 C17.1185,18.6718 16.3345,17.8878 16.3345,16.9218 L16.3345,16.9218 Z M7.5845,18.6718 C6.6185,18.6718 5.8345,17.8878 5.8345,16.9218 C5.8345,15.9558 6.6185,15.1718 7.5845,15.1718 C8.5505,15.1718 9.3345,15.9558 9.3345,16.9218 C9.3345,17.8878 8.5505,18.6718 7.5845,18.6718 L7.5845,18.6718 Z M5.8345,4.6718 L19.8345,4.6718 L19.8345,12.8384667 L5.8345,12.8384667 L5.8345,4.6718 Z M19.8345,0.00513333333 L5.8345,0.00513333333 C4.54533333,0.00513333333 3.50116667,1.05046667 3.50116667,2.33846667 L3.50116667,21.0051333 C3.50116667,22.2931333 4.54533333,23.3384667 5.8345,23.3384667 C7.1225,23.3384667 8.16783333,22.2931333 8.16783333,21.0051333 L17.5011667,21.0051333 C17.5011667,22.2931333 18.5453333,23.3384667 19.8345,23.3384667 C21.1225,23.3384667 22.1678333,22.2931333 22.1678333,21.0051333 L22.1678333,2.33846667 C22.1678333,1.05046667 21.1225,0.00513333333 19.8345,0.00513333333 L19.8345,0.00513333333 Z" id="Fill-687"></path>
                        <polygon id="Fill-688" points="23.3345 10.5046667 25.6678333 10.5046667 25.6678333 5.838 23.3345 5.838"></polygon>
                        <polygon id="Fill-689" points="0.00116666667 10.5046667 2.3345 10.5046667 2.3345 5.838 0.00116666667 5.838"></polygon>
                    </g>
                </g>
            </g>
        </g>
    </g>
</svg>