<?xml version="1.0" encoding="UTF-8"?>
<svg width="25px" height="31px" viewBox="0 0 25 31" version="1.1" xmlns="http://www.w3.org/2000/svg" xmlns:xlink="http://www.w3.org/1999/xlink">
    <!-- Generator: Sketch 45 (43475) - http://www.bohemiancoding.com/sketch -->
    <title>ic-tip4</title>
    <desc>Created with Sketch.</desc>
    <defs></defs>
    <g id="Page-1" stroke="none" stroke-width="1" fill="none" fill-rule="evenodd">
        <g id="08-cam-nangDL" transform="translate(-584.000000, -325.000000)" fill="#FFFFFF">
            <g id="Group-2" transform="translate(260.000000, 304.000000)">
                <g id="3" transform="translate(300.000000, 0.000000)">
                    <g id="ic-tip4" transform="translate(24.000000, 21.000000)">
                        <path d="M2.27665254,1.23627162 C2.16182203,0.622136486 1.56478814,0.215785135 0.943601695,0.329731081 C0.322415254,0.443258108 -0.0881779661,1.03309595 0.0266525424,1.64723108 L5.30419492,29.8827851 C5.40588983,30.4277986 5.88682203,30.8085959 6.42792373,30.8085959 C6.49699153,30.8085959 6.56690678,30.8023122 6.63724576,30.7893257 C7.2584322,30.6757986 7.66902542,30.0859608 7.55419492,29.4718257 L2.27665254,1.23627162 Z" id="Fill-45"></path>
                        <path d="M8.23360169,16.2515824 L6.02851695,4.45440676 L20.5247034,7.90587973 L8.23360169,16.2515824 Z M23.8543644,6.37221757 L3.13826271,1.4394473 L6.62385593,20.0888797 L24.1891102,8.16225811 C24.908178,7.67421757 24.7026695,6.57413649 23.8543644,6.37221757 L23.8543644,6.37221757 Z" id="Fill-46"></path>
                    </g>
                </g>
            </g>
        </g>
    </g>
</svg>