<?xml version="1.0" encoding="UTF-8"?>
<svg width="64px" height="130px" viewBox="0 0 64 130" version="1.1" xmlns="http://www.w3.org/2000/svg" xmlns:xlink="http://www.w3.org/1999/xlink">
    <!-- Generator: Sketch 45.2 (43514) - http://www.bohemiancoding.com/sketch -->
    <title>bg-gray</title>
    <desc>Created with Sketch.</desc>
    <defs></defs>
    <g id="Page-1" stroke="none" stroke-width="1" fill="none" fill-rule="evenodd" fill-opacity="0.6">
        <g id="member" transform="translate(-635.000000, -962.000000)" fill="#EEEFF0">
            <g id="1" transform="translate(476.000000, 853.000000)">
                <g id="bg">
                    <path d="M212.836363,153.781205 C206.259653,143.543423 197.686018,127.247342 196.316462,113.638325 C197.529768,113.143215 198.382041,111.956842 198.382041,110.568408 C198.382041,108.735675 196.895298,107.25271 195.059358,107.25271 C193.224603,107.25271 191.734308,108.735675 191.734308,110.568408 C191.734308,111.966296 192.606705,113.157395 193.831848,113.646596 C192.461108,127.256796 183.887473,143.546968 177.317865,153.781205 C170.484289,164.416019 159.475756,176.67087 167.399532,198.75938 C175.320941,220.84789 175.879653,236.159659 175.879653,236.159659 L186.742589,236.159659 C183.734774,215.159445 179.658066,206.034775 178.408065,195.779269 C176.458489,179.779781 187.088234,171.685506 191.582793,169.01853 C189.830897,167.904238 188.666123,165.959249 188.666123,163.733028 C188.666123,162.33514 189.13369,161.044783 189.913757,160.001389 C189.913757,160.001389 194.13843,120.386705 194.940987,112.884435 C193.713477,112.824171 192.727443,111.813863 192.727443,110.568408 C192.727443,109.282777 193.772662,108.244111 195.059358,108.244111 C196.347238,108.244111 197.39009,109.282777 197.39009,110.568408 C197.39009,111.805592 196.42418,112.804083 195.208506,112.88089 C196.00988,120.377252 200.23692,160.001389 200.23692,160.001389 C201.01462,161.044783 201.479819,162.33514 201.479819,163.733028 C201.479819,165.959249 200.31978,167.904238 198.569068,169.01853 C203.060076,171.685506 213.693372,179.779781 211.743796,195.779269 C210.493795,206.034775 206.413536,215.159445 203.409271,236.159659 L214.268656,236.159659 C214.268656,236.159659 214.829736,220.84789 222.748778,198.75938 C230.676105,176.67087 219.664021,164.416019 212.836363,153.781205" id="bg-gray" transform="translate(195.074944, 171.706184) rotate(15.000000) translate(-195.074944, -171.706184) "></path>
                </g>
            </g>
        </g>
    </g>
</svg>