<?xml version="1.0" encoding="UTF-8"?>
<svg width="8px" height="9px" viewBox="0 0 8 9" version="1.1" xmlns="http://www.w3.org/2000/svg" xmlns:xlink="http://www.w3.org/1999/xlink">
    <!-- Generator: Sketch 43.1 (39012) - http://www.bohemiancoding.com/sketch -->
    <title>product-calendar</title>
    <desc>Created with Sketch.</desc>
    <defs></defs>
    <g id="Page-1" stroke="none" stroke-width="1" fill="none" fill-rule="evenodd">
        <g id="01-home-page" transform="translate(-78.000000, -821.000000)" fill="#111111">
            <g id="trong-nuoc" transform="translate(61.000000, 611.000000)">
                <g id="Group-7" transform="translate(0.000000, 41.000000)">
                    <g id="photo1">
                        <path d="M20.0769231,169.615385 L20.0769231,169 L19.4615385,169 L19.4615385,169.615385 L19.4615385,170.230769 L20.0769231,170.230769 L20.0769231,169.615385 L20.0769231,169.615385 Z M18.8461538,169.615385 L18.8461538,169 L18.2307692,169 L18.2307692,169.615385 L18.2307692,170.230769 L18.8461538,170.230769 L18.8461538,169.615385 L18.8461538,169.615385 Z M23.7692308,169.615385 L23.7692308,169 L23.1538462,169 L23.1538462,169.615385 L23.1538462,170.230769 L23.7692308,170.230769 L23.7692308,169.615385 L23.7692308,169.615385 Z M22.5384615,169.615385 L22.5384615,169 L21.9230769,169 L21.9230769,169.615385 L21.9230769,170.230769 L22.5384615,170.230769 L22.5384615,169.615385 L22.5384615,169.615385 Z M21.3076923,169.615385 L21.3076923,169 L20.6923077,169 L20.6923077,169.615385 L20.6923077,170.230769 L21.3076923,170.230769 L21.3076923,169.615385 L21.3076923,169.615385 Z M17,170.846154 L17,171.461538 L17,177 L17.6153846,177.615385 L24.3846154,177.615385 L25,177 L25,171.461538 L25,170.846154 L25,170.230769 L24.3846154,169.615385 L24.3846154,170.230769 L24.3846154,170.846154 L23.7692308,170.846154 L23.1538462,170.846154 L22.5384615,170.846154 L21.9230769,170.846154 L21.3076923,170.846154 L20.6923077,170.846154 L20.0769231,170.846154 L19.4615385,170.846154 L18.8461538,170.846154 L18.2307692,170.846154 L17.6153846,170.846154 L17.6153846,170.230769 L17.6153846,169.615385 L17,170.230769 L17,170.846154 Z M17.6153846,171.461538 L18.2307692,171.461538 L18.8461538,171.461538 L24.3846154,171.461538 L24.3846154,177 L17.6153846,177 L17.6153846,171.461538 Z M21.4767368,172.692308 L21.1070092,173.062035 L21.7065745,173.661601 L19.4615385,173.661601 L19.4615385,174.184553 L21.7065745,174.184553 L21.1070092,174.784119 L21.4767368,175.153846 L22.7077675,173.923077 L21.4767368,172.692308 Z" id="product-calendar"></path>
                    </g>
                </g>
            </g>
        </g>
    </g>
</svg>