<?xml version="1.0" encoding="UTF-8"?>
<svg width="115px" height="115px" viewBox="0 0 115 115" version="1.1" xmlns="http://www.w3.org/2000/svg" xmlns:xlink="http://www.w3.org/1999/xlink">
    <!-- Generator: Sketch 45.2 (43514) - http://www.bohemiancoding.com/sketch -->
    <title>qrcode copy 4</title>
    <desc>Created with Sketch.</desc>
    <defs></defs>
    <g id="Page-1" stroke="none" stroke-width="1" fill="none" fill-rule="evenodd">
        <g id="member" transform="translate(-150.000000, -760.000000)" fill="#000000">
            <g id="qrcode" transform="translate(145.000000, 755.000000)">
                <g id="elements">
                    <g transform="translate(5.429591, 5.429591)">
                        <path d="M0,0 L5.42959085,0 L5.42959085,5.42959085 L0,5.42959085 L0,0 Z M5.42959085,0 L10.8591817,0 L10.8591817,5.42959085 L5.42959085,5.42959085 L5.42959085,0 Z M10.8591817,0 L16.2887725,0 L16.2887725,5.42959085 L10.8591817,5.42959085 L10.8591817,0 Z M16.2887725,0 L21.7183634,0 L21.7183634,5.42959085 L16.2887725,5.42959085 L16.2887725,0 Z M21.7183634,0 L27.1479542,0 L27.1479542,5.42959085 L21.7183634,5.42959085 L21.7183634,0 Z M27.1479542,0 L32.5775451,0 L32.5775451,5.42959085 L27.1479542,5.42959085 L27.1479542,0 Z M32.5775451,0 L38.0071359,0 L38.0071359,5.42959085 L32.5775451,5.42959085 L32.5775451,0 Z M54.2959085,0 L59.7254993,0 L59.7254993,5.42959085 L54.2959085,5.42959085 L54.2959085,0 Z M59.7254993,0 L65.1550902,0 L65.1550902,5.42959085 L59.7254993,5.42959085 L59.7254993,0 Z M65.1550902,0 L70.584681,0 L70.584681,5.42959085 L65.1550902,5.42959085 L65.1550902,0 Z M76.0142719,0 L81.4438627,0 L81.4438627,5.42959085 L76.0142719,5.42959085 L76.0142719,0 Z M81.4438627,0 L86.8734536,0 L86.8734536,5.42959085 L81.4438627,5.42959085 L81.4438627,0 Z M86.8734536,0 L92.3030444,0 L92.3030444,5.42959085 L86.8734536,5.42959085 L86.8734536,0 Z M92.3030444,0 L97.7326352,0 L97.7326352,5.42959085 L92.3030444,5.42959085 L92.3030444,0 Z M97.7326352,0 L103.162226,0 L103.162226,5.42959085 L97.7326352,5.42959085 L97.7326352,0 Z M103.162226,0 L108.591817,0 L108.591817,5.42959085 L103.162226,5.42959085 L103.162226,0 Z M108.591817,0 L114.021408,0 L114.021408,5.42959085 L108.591817,5.42959085 L108.591817,0 Z M0,5.42959085 L5.42959085,5.42959085 L5.42959085,10.8591817 L0,10.8591817 L0,5.42959085 Z M32.5775451,5.42959085 L38.0071359,5.42959085 L38.0071359,10.8591817 L32.5775451,10.8591817 L32.5775451,5.42959085 Z M43.4367268,5.42959085 L48.8663176,5.42959085 L48.8663176,10.8591817 L43.4367268,10.8591817 L43.4367268,5.42959085 Z M48.8663176,5.42959085 L54.2959085,5.42959085 L54.2959085,10.8591817 L48.8663176,10.8591817 L48.8663176,5.42959085 Z M54.2959085,5.42959085 L59.7254993,5.42959085 L59.7254993,10.8591817 L54.2959085,10.8591817 L54.2959085,5.42959085 Z M65.1550902,5.42959085 L70.584681,5.42959085 L70.584681,10.8591817 L65.1550902,10.8591817 L65.1550902,5.42959085 Z M76.0142719,5.42959085 L81.4438627,5.42959085 L81.4438627,10.8591817 L76.0142719,10.8591817 L76.0142719,5.42959085 Z M108.591817,5.42959085 L114.021408,5.42959085 L114.021408,10.8591817 L108.591817,10.8591817 L108.591817,5.42959085 Z M0,10.8591817 L5.42959085,10.8591817 L5.42959085,16.2887725 L0,16.2887725 L0,10.8591817 Z M10.8591817,10.8591817 L16.2887725,10.8591817 L16.2887725,16.2887725 L10.8591817,16.2887725 L10.8591817,10.8591817 Z M16.2887725,10.8591817 L21.7183634,10.8591817 L21.7183634,16.2887725 L16.2887725,16.2887725 L16.2887725,10.8591817 Z M21.7183634,10.8591817 L27.1479542,10.8591817 L27.1479542,16.2887725 L21.7183634,16.2887725 L21.7183634,10.8591817 Z M32.5775451,10.8591817 L38.0071359,10.8591817 L38.0071359,16.2887725 L32.5775451,16.2887725 L32.5775451,10.8591817 Z M54.2959085,10.8591817 L59.7254993,10.8591817 L59.7254993,16.2887725 L54.2959085,16.2887725 L54.2959085,10.8591817 Z M59.7254993,10.8591817 L65.1550902,10.8591817 L65.1550902,16.2887725 L59.7254993,16.2887725 L59.7254993,10.8591817 Z M65.1550902,10.8591817 L70.584681,10.8591817 L70.584681,16.2887725 L65.1550902,16.2887725 L65.1550902,10.8591817 Z M76.0142719,10.8591817 L81.4438627,10.8591817 L81.4438627,16.2887725 L76.0142719,16.2887725 L76.0142719,10.8591817 Z M86.8734536,10.8591817 L92.3030444,10.8591817 L92.3030444,16.2887725 L86.8734536,16.2887725 L86.8734536,10.8591817 Z M92.3030444,10.8591817 L97.7326352,10.8591817 L97.7326352,16.2887725 L92.3030444,16.2887725 L92.3030444,10.8591817 Z M97.7326352,10.8591817 L103.162226,10.8591817 L103.162226,16.2887725 L97.7326352,16.2887725 L97.7326352,10.8591817 Z M108.591817,10.8591817 L114.021408,10.8591817 L114.021408,16.2887725 L108.591817,16.2887725 L108.591817,10.8591817 Z M0,16.2887725 L5.42959085,16.2887725 L5.42959085,21.7183634 L0,21.7183634 L0,16.2887725 Z M10.8591817,16.2887725 L16.2887725,16.2887725 L16.2887725,21.7183634 L10.8591817,21.7183634 L10.8591817,16.2887725 Z M16.2887725,16.2887725 L21.7183634,16.2887725 L21.7183634,21.7183634 L16.2887725,21.7183634 L16.2887725,16.2887725 Z M21.7183634,16.2887725 L27.1479542,16.2887725 L27.1479542,21.7183634 L21.7183634,21.7183634 L21.7183634,16.2887725 Z M32.5775451,16.2887725 L38.0071359,16.2887725 L38.0071359,21.7183634 L32.5775451,21.7183634 L32.5775451,16.2887725 Z M43.4367268,16.2887725 L48.8663176,16.2887725 L48.8663176,21.7183634 L43.4367268,21.7183634 L43.4367268,16.2887725 Z M48.8663176,16.2887725 L54.2959085,16.2887725 L54.2959085,21.7183634 L48.8663176,21.7183634 L48.8663176,16.2887725 Z M65.1550902,16.2887725 L70.584681,16.2887725 L70.584681,21.7183634 L65.1550902,21.7183634 L65.1550902,16.2887725 Z M76.0142719,16.2887725 L81.4438627,16.2887725 L81.4438627,21.7183634 L76.0142719,21.7183634 L76.0142719,16.2887725 Z M86.8734536,16.2887725 L92.3030444,16.2887725 L92.3030444,21.7183634 L86.8734536,21.7183634 L86.8734536,16.2887725 Z M92.3030444,16.2887725 L97.7326352,16.2887725 L97.7326352,21.7183634 L92.3030444,21.7183634 L92.3030444,16.2887725 Z M97.7326352,16.2887725 L103.162226,16.2887725 L103.162226,21.7183634 L97.7326352,21.7183634 L97.7326352,16.2887725 Z M108.591817,16.2887725 L114.021408,16.2887725 L114.021408,21.7183634 L108.591817,21.7183634 L108.591817,16.2887725 Z M0,21.7183634 L5.42959085,21.7183634 L5.42959085,27.1479542 L0,27.1479542 L0,21.7183634 Z M10.8591817,21.7183634 L16.2887725,21.7183634 L16.2887725,27.1479542 L10.8591817,27.1479542 L10.8591817,21.7183634 Z M16.2887725,21.7183634 L21.7183634,21.7183634 L21.7183634,27.1479542 L16.2887725,27.1479542 L16.2887725,21.7183634 Z M21.7183634,21.7183634 L27.1479542,21.7183634 L27.1479542,27.1479542 L21.7183634,27.1479542 L21.7183634,21.7183634 Z M32.5775451,21.7183634 L38.0071359,21.7183634 L38.0071359,27.1479542 L32.5775451,27.1479542 L32.5775451,21.7183634 Z M48.8663176,21.7183634 L54.2959085,21.7183634 L54.2959085,27.1479542 L48.8663176,27.1479542 L48.8663176,21.7183634 Z M65.1550902,21.7183634 L70.584681,21.7183634 L70.584681,27.1479542 L65.1550902,27.1479542 L65.1550902,21.7183634 Z M76.0142719,21.7183634 L81.4438627,21.7183634 L81.4438627,27.1479542 L76.0142719,27.1479542 L76.0142719,21.7183634 Z M86.8734536,21.7183634 L92.3030444,21.7183634 L92.3030444,27.1479542 L86.8734536,27.1479542 L86.8734536,21.7183634 Z M92.3030444,21.7183634 L97.7326352,21.7183634 L97.7326352,27.1479542 L92.3030444,27.1479542 L92.3030444,21.7183634 Z M97.7326352,21.7183634 L103.162226,21.7183634 L103.162226,27.1479542 L97.7326352,27.1479542 L97.7326352,21.7183634 Z M108.591817,21.7183634 L114.021408,21.7183634 L114.021408,27.1479542 L108.591817,27.1479542 L108.591817,21.7183634 Z M0,27.1479542 L5.42959085,27.1479542 L5.42959085,32.5775451 L0,32.5775451 L0,27.1479542 Z M32.5775451,27.1479542 L38.0071359,27.1479542 L38.0071359,32.5775451 L32.5775451,32.5775451 L32.5775451,27.1479542 Z M43.4367268,27.1479542 L48.8663176,27.1479542 L48.8663176,32.5775451 L43.4367268,32.5775451 L43.4367268,27.1479542 Z M59.7254993,27.1479542 L65.1550902,27.1479542 L65.1550902,32.5775451 L59.7254993,32.5775451 L59.7254993,27.1479542 Z M76.0142719,27.1479542 L81.4438627,27.1479542 L81.4438627,32.5775451 L76.0142719,32.5775451 L76.0142719,27.1479542 Z M108.591817,27.1479542 L114.021408,27.1479542 L114.021408,32.5775451 L108.591817,32.5775451 L108.591817,27.1479542 Z M0,32.5775451 L5.42959085,32.5775451 L5.42959085,38.0071359 L0,38.0071359 L0,32.5775451 Z M5.42959085,32.5775451 L10.8591817,32.5775451 L10.8591817,38.0071359 L5.42959085,38.0071359 L5.42959085,32.5775451 Z M10.8591817,32.5775451 L16.2887725,32.5775451 L16.2887725,38.0071359 L10.8591817,38.0071359 L10.8591817,32.5775451 Z M16.2887725,32.5775451 L21.7183634,32.5775451 L21.7183634,38.0071359 L16.2887725,38.0071359 L16.2887725,32.5775451 Z M21.7183634,32.5775451 L27.1479542,32.5775451 L27.1479542,38.0071359 L21.7183634,38.0071359 L21.7183634,32.5775451 Z M27.1479542,32.5775451 L32.5775451,32.5775451 L32.5775451,38.0071359 L27.1479542,38.0071359 L27.1479542,32.5775451 Z M32.5775451,32.5775451 L38.0071359,32.5775451 L38.0071359,38.0071359 L32.5775451,38.0071359 L32.5775451,32.5775451 Z M43.4367268,32.5775451 L48.8663176,32.5775451 L48.8663176,38.0071359 L43.4367268,38.0071359 L43.4367268,32.5775451 Z M54.2959085,32.5775451 L59.7254993,32.5775451 L59.7254993,38.0071359 L54.2959085,38.0071359 L54.2959085,32.5775451 Z M65.1550902,32.5775451 L70.584681,32.5775451 L70.584681,38.0071359 L65.1550902,38.0071359 L65.1550902,32.5775451 Z M76.0142719,32.5775451 L81.4438627,32.5775451 L81.4438627,38.0071359 L76.0142719,38.0071359 L76.0142719,32.5775451 Z M81.4438627,32.5775451 L86.8734536,32.5775451 L86.8734536,38.0071359 L81.4438627,38.0071359 L81.4438627,32.5775451 Z M86.8734536,32.5775451 L92.3030444,32.5775451 L92.3030444,38.0071359 L86.8734536,38.0071359 L86.8734536,32.5775451 Z M92.3030444,32.5775451 L97.7326352,32.5775451 L97.7326352,38.0071359 L92.3030444,38.0071359 L92.3030444,32.5775451 Z M97.7326352,32.5775451 L103.162226,32.5775451 L103.162226,38.0071359 L97.7326352,38.0071359 L97.7326352,32.5775451 Z M103.162226,32.5775451 L108.591817,32.5775451 L108.591817,38.0071359 L103.162226,38.0071359 L103.162226,32.5775451 Z M108.591817,32.5775451 L114.021408,32.5775451 L114.021408,38.0071359 L108.591817,38.0071359 L108.591817,32.5775451 Z M48.8663176,38.0071359 L54.2959085,38.0071359 L54.2959085,43.4367268 L48.8663176,43.4367268 L48.8663176,38.0071359 Z M0,43.4367268 L5.42959085,43.4367268 L5.42959085,48.8663176 L0,48.8663176 L0,43.4367268 Z M5.42959085,43.4367268 L10.8591817,43.4367268 L10.8591817,48.8663176 L5.42959085,48.8663176 L5.42959085,43.4367268 Z M10.8591817,43.4367268 L16.2887725,43.4367268 L16.2887725,48.8663176 L10.8591817,48.8663176 L10.8591817,43.4367268 Z M16.2887725,43.4367268 L21.7183634,43.4367268 L21.7183634,48.8663176 L16.2887725,48.8663176 L16.2887725,43.4367268 Z M21.7183634,43.4367268 L27.1479542,43.4367268 L27.1479542,48.8663176 L21.7183634,48.8663176 L21.7183634,43.4367268 Z M32.5775451,43.4367268 L38.0071359,43.4367268 L38.0071359,48.8663176 L32.5775451,48.8663176 L32.5775451,43.4367268 Z M38.0071359,43.4367268 L43.4367268,43.4367268 L43.4367268,48.8663176 L38.0071359,48.8663176 L38.0071359,43.4367268 Z M43.4367268,43.4367268 L48.8663176,43.4367268 L48.8663176,48.8663176 L43.4367268,48.8663176 L43.4367268,43.4367268 Z M59.7254993,43.4367268 L65.1550902,43.4367268 L65.1550902,48.8663176 L59.7254993,48.8663176 L59.7254993,43.4367268 Z M70.584681,43.4367268 L76.0142719,43.4367268 L76.0142719,48.8663176 L70.584681,48.8663176 L70.584681,43.4367268 Z M81.4438627,43.4367268 L86.8734536,43.4367268 L86.8734536,48.8663176 L81.4438627,48.8663176 L81.4438627,43.4367268 Z M92.3030444,43.4367268 L97.7326352,43.4367268 L97.7326352,48.8663176 L92.3030444,48.8663176 L92.3030444,43.4367268 Z M103.162226,43.4367268 L108.591817,43.4367268 L108.591817,48.8663176 L103.162226,48.8663176 L103.162226,43.4367268 Z M10.8591817,48.8663176 L16.2887725,48.8663176 L16.2887725,54.2959085 L10.8591817,54.2959085 L10.8591817,48.8663176 Z M16.2887725,48.8663176 L21.7183634,48.8663176 L21.7183634,54.2959085 L16.2887725,54.2959085 L16.2887725,48.8663176 Z M21.7183634,48.8663176 L27.1479542,48.8663176 L27.1479542,54.2959085 L21.7183634,54.2959085 L21.7183634,48.8663176 Z M38.0071359,48.8663176 L43.4367268,48.8663176 L43.4367268,54.2959085 L38.0071359,54.2959085 L38.0071359,48.8663176 Z M48.8663176,48.8663176 L54.2959085,48.8663176 L54.2959085,54.2959085 L48.8663176,54.2959085 L48.8663176,48.8663176 Z M54.2959085,48.8663176 L59.7254993,48.8663176 L59.7254993,54.2959085 L54.2959085,54.2959085 L54.2959085,48.8663176 Z M59.7254993,48.8663176 L65.1550902,48.8663176 L65.1550902,54.2959085 L59.7254993,54.2959085 L59.7254993,48.8663176 Z M65.1550902,48.8663176 L70.584681,48.8663176 L70.584681,54.2959085 L65.1550902,54.2959085 L65.1550902,48.8663176 Z M70.584681,48.8663176 L76.0142719,48.8663176 L76.0142719,54.2959085 L70.584681,54.2959085 L70.584681,48.8663176 Z M76.0142719,48.8663176 L81.4438627,48.8663176 L81.4438627,54.2959085 L76.0142719,54.2959085 L76.0142719,48.8663176 Z M81.4438627,48.8663176 L86.8734536,48.8663176 L86.8734536,54.2959085 L81.4438627,54.2959085 L81.4438627,48.8663176 Z M97.7326352,48.8663176 L103.162226,48.8663176 L103.162226,54.2959085 L97.7326352,54.2959085 L97.7326352,48.8663176 Z M103.162226,48.8663176 L108.591817,48.8663176 L108.591817,54.2959085 L103.162226,54.2959085 L103.162226,48.8663176 Z M108.591817,48.8663176 L114.021408,48.8663176 L114.021408,54.2959085 L108.591817,54.2959085 L108.591817,48.8663176 Z M5.42959085,54.2959085 L10.8591817,54.2959085 L10.8591817,59.7254993 L5.42959085,59.7254993 L5.42959085,54.2959085 Z M10.8591817,54.2959085 L16.2887725,54.2959085 L16.2887725,59.7254993 L10.8591817,59.7254993 L10.8591817,54.2959085 Z M21.7183634,54.2959085 L27.1479542,54.2959085 L27.1479542,59.7254993 L21.7183634,59.7254993 L21.7183634,54.2959085 Z M32.5775451,54.2959085 L38.0071359,54.2959085 L38.0071359,59.7254993 L32.5775451,59.7254993 L32.5775451,54.2959085 Z M38.0071359,54.2959085 L43.4367268,54.2959085 L43.4367268,59.7254993 L38.0071359,59.7254993 L38.0071359,54.2959085 Z M43.4367268,54.2959085 L48.8663176,54.2959085 L48.8663176,59.7254993 L43.4367268,59.7254993 L43.4367268,54.2959085 Z M54.2959085,54.2959085 L59.7254993,54.2959085 L59.7254993,59.7254993 L54.2959085,59.7254993 L54.2959085,54.2959085 Z M65.1550902,54.2959085 L70.584681,54.2959085 L70.584681,59.7254993 L65.1550902,59.7254993 L65.1550902,54.2959085 Z M76.0142719,54.2959085 L81.4438627,54.2959085 L81.4438627,59.7254993 L76.0142719,59.7254993 L76.0142719,54.2959085 Z M81.4438627,54.2959085 L86.8734536,54.2959085 L86.8734536,59.7254993 L81.4438627,59.7254993 L81.4438627,54.2959085 Z M92.3030444,54.2959085 L97.7326352,54.2959085 L97.7326352,59.7254993 L92.3030444,59.7254993 L92.3030444,54.2959085 Z M97.7326352,54.2959085 L103.162226,54.2959085 L103.162226,59.7254993 L97.7326352,59.7254993 L97.7326352,54.2959085 Z M0,59.7254993 L5.42959085,59.7254993 L5.42959085,65.1550902 L0,65.1550902 L0,59.7254993 Z M5.42959085,59.7254993 L10.8591817,59.7254993 L10.8591817,65.1550902 L5.42959085,65.1550902 L5.42959085,59.7254993 Z M16.2887725,59.7254993 L21.7183634,59.7254993 L21.7183634,65.1550902 L16.2887725,65.1550902 L16.2887725,59.7254993 Z M21.7183634,59.7254993 L27.1479542,59.7254993 L27.1479542,65.1550902 L21.7183634,65.1550902 L21.7183634,59.7254993 Z M43.4367268,59.7254993 L48.8663176,59.7254993 L48.8663176,65.1550902 L43.4367268,65.1550902 L43.4367268,59.7254993 Z M59.7254993,59.7254993 L65.1550902,59.7254993 L65.1550902,65.1550902 L59.7254993,65.1550902 L59.7254993,59.7254993 Z M65.1550902,59.7254993 L70.584681,59.7254993 L70.584681,65.1550902 L65.1550902,65.1550902 L65.1550902,59.7254993 Z M70.584681,59.7254993 L76.0142719,59.7254993 L76.0142719,65.1550902 L70.584681,65.1550902 L70.584681,59.7254993 Z M76.0142719,59.7254993 L81.4438627,59.7254993 L81.4438627,65.1550902 L76.0142719,65.1550902 L76.0142719,59.7254993 Z M81.4438627,59.7254993 L86.8734536,59.7254993 L86.8734536,65.1550902 L81.4438627,65.1550902 L81.4438627,59.7254993 Z M97.7326352,59.7254993 L103.162226,59.7254993 L103.162226,65.1550902 L97.7326352,65.1550902 L97.7326352,59.7254993 Z M108.591817,59.7254993 L114.021408,59.7254993 L114.021408,65.1550902 L108.591817,65.1550902 L108.591817,59.7254993 Z M5.42959085,65.1550902 L10.8591817,65.1550902 L10.8591817,70.584681 L5.42959085,70.584681 L5.42959085,65.1550902 Z M10.8591817,65.1550902 L16.2887725,65.1550902 L16.2887725,70.584681 L10.8591817,70.584681 L10.8591817,65.1550902 Z M16.2887725,65.1550902 L21.7183634,65.1550902 L21.7183634,70.584681 L16.2887725,70.584681 L16.2887725,65.1550902 Z M32.5775451,65.1550902 L38.0071359,65.1550902 L38.0071359,70.584681 L32.5775451,70.584681 L32.5775451,65.1550902 Z M38.0071359,65.1550902 L43.4367268,65.1550902 L43.4367268,70.584681 L38.0071359,70.584681 L38.0071359,65.1550902 Z M43.4367268,65.1550902 L48.8663176,65.1550902 L48.8663176,70.584681 L43.4367268,70.584681 L43.4367268,65.1550902 Z M48.8663176,65.1550902 L54.2959085,65.1550902 L54.2959085,70.584681 L48.8663176,70.584681 L48.8663176,65.1550902 Z M54.2959085,65.1550902 L59.7254993,65.1550902 L59.7254993,70.584681 L54.2959085,70.584681 L54.2959085,65.1550902 Z M65.1550902,65.1550902 L70.584681,65.1550902 L70.584681,70.584681 L65.1550902,70.584681 L65.1550902,65.1550902 Z M86.8734536,65.1550902 L92.3030444,65.1550902 L92.3030444,70.584681 L86.8734536,70.584681 L86.8734536,65.1550902 Z M103.162226,65.1550902 L108.591817,65.1550902 L108.591817,70.584681 L103.162226,70.584681 L103.162226,65.1550902 Z M108.591817,65.1550902 L114.021408,65.1550902 L114.021408,70.584681 L108.591817,70.584681 L108.591817,65.1550902 Z M43.4367268,70.584681 L48.8663176,70.584681 L48.8663176,76.0142719 L43.4367268,76.0142719 L43.4367268,70.584681 Z M54.2959085,70.584681 L59.7254993,70.584681 L59.7254993,76.0142719 L54.2959085,76.0142719 L54.2959085,70.584681 Z M65.1550902,70.584681 L70.584681,70.584681 L70.584681,76.0142719 L65.1550902,76.0142719 L65.1550902,70.584681 Z M81.4438627,70.584681 L86.8734536,70.584681 L86.8734536,76.0142719 L81.4438627,76.0142719 L81.4438627,70.584681 Z M97.7326352,70.584681 L103.162226,70.584681 L103.162226,76.0142719 L97.7326352,76.0142719 L97.7326352,70.584681 Z M0,76.0142719 L5.42959085,76.0142719 L5.42959085,81.4438627 L0,81.4438627 L0,76.0142719 Z M5.42959085,76.0142719 L10.8591817,76.0142719 L10.8591817,81.4438627 L5.42959085,81.4438627 L5.42959085,76.0142719 Z M10.8591817,76.0142719 L16.2887725,76.0142719 L16.2887725,81.4438627 L10.8591817,81.4438627 L10.8591817,76.0142719 Z M16.2887725,76.0142719 L21.7183634,76.0142719 L21.7183634,81.4438627 L16.2887725,81.4438627 L16.2887725,76.0142719 Z M21.7183634,76.0142719 L27.1479542,76.0142719 L27.1479542,81.4438627 L21.7183634,81.4438627 L21.7183634,76.0142719 Z M27.1479542,76.0142719 L32.5775451,76.0142719 L32.5775451,81.4438627 L27.1479542,81.4438627 L27.1479542,76.0142719 Z M32.5775451,76.0142719 L38.0071359,76.0142719 L38.0071359,81.4438627 L32.5775451,81.4438627 L32.5775451,76.0142719 Z M43.4367268,76.0142719 L48.8663176,76.0142719 L48.8663176,81.4438627 L43.4367268,81.4438627 L43.4367268,76.0142719 Z M54.2959085,76.0142719 L59.7254993,76.0142719 L59.7254993,81.4438627 L54.2959085,81.4438627 L54.2959085,76.0142719 Z M59.7254993,76.0142719 L65.1550902,76.0142719 L65.1550902,81.4438627 L59.7254993,81.4438627 L59.7254993,76.0142719 Z M70.584681,76.0142719 L76.0142719,76.0142719 L76.0142719,81.4438627 L70.584681,81.4438627 L70.584681,76.0142719 Z M81.4438627,76.0142719 L86.8734536,76.0142719 L86.8734536,81.4438627 L81.4438627,81.4438627 L81.4438627,76.0142719 Z M86.8734536,76.0142719 L92.3030444,76.0142719 L92.3030444,81.4438627 L86.8734536,81.4438627 L86.8734536,76.0142719 Z M0,81.4438627 L5.42959085,81.4438627 L5.42959085,86.8734536 L0,86.8734536 L0,81.4438627 Z M32.5775451,81.4438627 L38.0071359,81.4438627 L38.0071359,86.8734536 L32.5775451,86.8734536 L32.5775451,81.4438627 Z M48.8663176,81.4438627 L54.2959085,81.4438627 L54.2959085,86.8734536 L48.8663176,86.8734536 L48.8663176,81.4438627 Z M54.2959085,81.4438627 L59.7254993,81.4438627 L59.7254993,86.8734536 L54.2959085,86.8734536 L54.2959085,81.4438627 Z M81.4438627,81.4438627 L86.8734536,81.4438627 L86.8734536,86.8734536 L81.4438627,86.8734536 L81.4438627,81.4438627 Z M86.8734536,81.4438627 L92.3030444,81.4438627 L92.3030444,86.8734536 L86.8734536,86.8734536 L86.8734536,81.4438627 Z M97.7326352,81.4438627 L103.162226,81.4438627 L103.162226,86.8734536 L97.7326352,86.8734536 L97.7326352,81.4438627 Z M108.591817,81.4438627 L114.021408,81.4438627 L114.021408,86.8734536 L108.591817,86.8734536 L108.591817,81.4438627 Z M0,86.8734536 L5.42959085,86.8734536 L5.42959085,92.3030444 L0,92.3030444 L0,86.8734536 Z M10.8591817,86.8734536 L16.2887725,86.8734536 L16.2887725,92.3030444 L10.8591817,92.3030444 L10.8591817,86.8734536 Z M16.2887725,86.8734536 L21.7183634,86.8734536 L21.7183634,92.3030444 L16.2887725,92.3030444 L16.2887725,86.8734536 Z M21.7183634,86.8734536 L27.1479542,86.8734536 L27.1479542,92.3030444 L21.7183634,92.3030444 L21.7183634,86.8734536 Z M32.5775451,86.8734536 L38.0071359,86.8734536 L38.0071359,92.3030444 L32.5775451,92.3030444 L32.5775451,86.8734536 Z M43.4367268,86.8734536 L48.8663176,86.8734536 L48.8663176,92.3030444 L43.4367268,92.3030444 L43.4367268,86.8734536 Z M48.8663176,86.8734536 L54.2959085,86.8734536 L54.2959085,92.3030444 L48.8663176,92.3030444 L48.8663176,86.8734536 Z M59.7254993,86.8734536 L65.1550902,86.8734536 L65.1550902,92.3030444 L59.7254993,92.3030444 L59.7254993,86.8734536 Z M70.584681,86.8734536 L76.0142719,86.8734536 L76.0142719,92.3030444 L70.584681,92.3030444 L70.584681,86.8734536 Z M0,92.3030444 L5.42959085,92.3030444 L5.42959085,97.7326352 L0,97.7326352 L0,92.3030444 Z M10.8591817,92.3030444 L16.2887725,92.3030444 L16.2887725,97.7326352 L10.8591817,97.7326352 L10.8591817,92.3030444 Z M16.2887725,92.3030444 L21.7183634,92.3030444 L21.7183634,97.7326352 L16.2887725,97.7326352 L16.2887725,92.3030444 Z M21.7183634,92.3030444 L27.1479542,92.3030444 L27.1479542,97.7326352 L21.7183634,97.7326352 L21.7183634,92.3030444 Z M32.5775451,92.3030444 L38.0071359,92.3030444 L38.0071359,97.7326352 L32.5775451,97.7326352 L32.5775451,92.3030444 Z M43.4367268,92.3030444 L48.8663176,92.3030444 L48.8663176,97.7326352 L43.4367268,97.7326352 L43.4367268,92.3030444 Z M54.2959085,92.3030444 L59.7254993,92.3030444 L59.7254993,97.7326352 L54.2959085,97.7326352 L54.2959085,92.3030444 Z M59.7254993,92.3030444 L65.1550902,92.3030444 L65.1550902,97.7326352 L59.7254993,97.7326352 L59.7254993,92.3030444 Z M65.1550902,92.3030444 L70.584681,92.3030444 L70.584681,97.7326352 L65.1550902,97.7326352 L65.1550902,92.3030444 Z M70.584681,92.3030444 L76.0142719,92.3030444 L76.0142719,97.7326352 L70.584681,97.7326352 L70.584681,92.3030444 Z M76.0142719,92.3030444 L81.4438627,92.3030444 L81.4438627,97.7326352 L76.0142719,97.7326352 L76.0142719,92.3030444 Z M86.8734536,92.3030444 L92.3030444,92.3030444 L92.3030444,97.7326352 L86.8734536,97.7326352 L86.8734536,92.3030444 Z M97.7326352,92.3030444 L103.162226,92.3030444 L103.162226,97.7326352 L97.7326352,97.7326352 L97.7326352,92.3030444 Z M0,97.7326352 L5.42959085,97.7326352 L5.42959085,103.162226 L0,103.162226 L0,97.7326352 Z M10.8591817,97.7326352 L16.2887725,97.7326352 L16.2887725,103.162226 L10.8591817,103.162226 L10.8591817,97.7326352 Z M16.2887725,97.7326352 L21.7183634,97.7326352 L21.7183634,103.162226 L16.2887725,103.162226 L16.2887725,97.7326352 Z M21.7183634,97.7326352 L27.1479542,97.7326352 L27.1479542,103.162226 L21.7183634,103.162226 L21.7183634,97.7326352 Z M32.5775451,97.7326352 L38.0071359,97.7326352 L38.0071359,103.162226 L32.5775451,103.162226 L32.5775451,97.7326352 Z M43.4367268,97.7326352 L48.8663176,97.7326352 L48.8663176,103.162226 L43.4367268,103.162226 L43.4367268,97.7326352 Z M54.2959085,97.7326352 L59.7254993,97.7326352 L59.7254993,103.162226 L54.2959085,103.162226 L54.2959085,97.7326352 Z M65.1550902,97.7326352 L70.584681,97.7326352 L70.584681,103.162226 L65.1550902,103.162226 L65.1550902,97.7326352 Z M76.0142719,97.7326352 L81.4438627,97.7326352 L81.4438627,103.162226 L76.0142719,103.162226 L76.0142719,97.7326352 Z M97.7326352,97.7326352 L103.162226,97.7326352 L103.162226,103.162226 L97.7326352,103.162226 L97.7326352,97.7326352 Z M0,103.162226 L5.42959085,103.162226 L5.42959085,108.591817 L0,108.591817 L0,103.162226 Z M32.5775451,103.162226 L38.0071359,103.162226 L38.0071359,108.591817 L32.5775451,108.591817 L32.5775451,103.162226 Z M43.4367268,103.162226 L48.8663176,103.162226 L48.8663176,108.591817 L43.4367268,108.591817 L43.4367268,103.162226 Z M48.8663176,103.162226 L54.2959085,103.162226 L54.2959085,108.591817 L48.8663176,108.591817 L48.8663176,103.162226 Z M59.7254993,103.162226 L65.1550902,103.162226 L65.1550902,108.591817 L59.7254993,108.591817 L59.7254993,103.162226 Z M65.1550902,103.162226 L70.584681,103.162226 L70.584681,108.591817 L65.1550902,108.591817 L65.1550902,103.162226 Z M70.584681,103.162226 L76.0142719,103.162226 L76.0142719,108.591817 L70.584681,108.591817 L70.584681,103.162226 Z M76.0142719,103.162226 L81.4438627,103.162226 L81.4438627,108.591817 L76.0142719,108.591817 L76.0142719,103.162226 Z M86.8734536,103.162226 L92.3030444,103.162226 L92.3030444,108.591817 L86.8734536,108.591817 L86.8734536,103.162226 Z M97.7326352,103.162226 L103.162226,103.162226 L103.162226,108.591817 L97.7326352,108.591817 L97.7326352,103.162226 Z M108.591817,103.162226 L114.021408,103.162226 L114.021408,108.591817 L108.591817,108.591817 L108.591817,103.162226 Z M0,108.591817 L5.42959085,108.591817 L5.42959085,114.021408 L0,114.021408 L0,108.591817 Z M5.42959085,108.591817 L10.8591817,108.591817 L10.8591817,114.021408 L5.42959085,114.021408 L5.42959085,108.591817 Z M10.8591817,108.591817 L16.2887725,108.591817 L16.2887725,114.021408 L10.8591817,114.021408 L10.8591817,108.591817 Z M16.2887725,108.591817 L21.7183634,108.591817 L21.7183634,114.021408 L16.2887725,114.021408 L16.2887725,108.591817 Z M21.7183634,108.591817 L27.1479542,108.591817 L27.1479542,114.021408 L21.7183634,114.021408 L21.7183634,108.591817 Z M27.1479542,108.591817 L32.5775451,108.591817 L32.5775451,114.021408 L27.1479542,114.021408 L27.1479542,108.591817 Z M32.5775451,108.591817 L38.0071359,108.591817 L38.0071359,114.021408 L32.5775451,114.021408 L32.5775451,108.591817 Z M43.4367268,108.591817 L48.8663176,108.591817 L48.8663176,114.021408 L43.4367268,114.021408 L43.4367268,108.591817 Z M48.8663176,108.591817 L54.2959085,108.591817 L54.2959085,114.021408 L48.8663176,114.021408 L48.8663176,108.591817 Z M54.2959085,108.591817 L59.7254993,108.591817 L59.7254993,114.021408 L54.2959085,114.021408 L54.2959085,108.591817 Z M65.1550902,108.591817 L70.584681,108.591817 L70.584681,114.021408 L65.1550902,114.021408 L65.1550902,108.591817 Z M81.4438627,108.591817 L86.8734536,108.591817 L86.8734536,114.021408 L81.4438627,114.021408 L81.4438627,108.591817 Z M86.8734536,108.591817 L92.3030444,108.591817 L92.3030444,114.021408 L86.8734536,114.021408 L86.8734536,108.591817 Z" id="Shape"></path>
                    </g>
                </g>
            </g>
        </g>
    </g>
</svg>