<?xml version="1.0" encoding="UTF-8"?>
<svg width="11px" height="19px" viewBox="0 0 11 19" version="1.1" xmlns="http://www.w3.org/2000/svg" xmlns:xlink="http://www.w3.org/1999/xlink">
    <!-- Generator: Sketch 43.1 (39012) - http://www.bohemiancoding.com/sketch -->
    <title>search-price</title>
    <desc>Created with Sketch.</desc>
    <defs></defs>
    <g id="Symbols" stroke="none" stroke-width="1" fill="none" fill-rule="evenodd">
        <g id="groupSearch" transform="translate(-774.000000, -26.000000)" stroke="#000000">
            <path d="M780.454887,27 L779.167777,27 C778.976623,27 778.810955,27.1529239 778.810955,27.3568223 L778.810955,28.8988045 C777.829694,29.0389847 777.039587,29.395807 776.427892,29.9820151 C775.752478,30.6191978 775.421143,31.4475354 775.421143,32.4415404 C775.421143,33.5374947 775.739734,34.3785759 776.364174,34.9392967 C777.001356,35.5127611 778.008105,36.0607383 779.397163,36.6214591 C779.970628,36.8635885 780.365681,37.1184616 780.582323,37.3733347 C780.798965,37.6282078 780.913658,37.9850301 780.913658,38.4565453 C780.913658,38.8515986 780.798965,39.1829336 780.582323,39.425063 C780.365681,39.6671925 780.04709,39.794629 779.626549,39.794629 C779.116803,39.794629 778.709006,39.6289615 778.390415,39.3103701 C778.135541,39.0427534 777.982618,38.6477001 777.931643,38.1124666 C777.918899,37.8958245 777.727745,37.7429006 777.511102,37.7429006 L775.408399,37.7811316 C775.179014,37.7811316 774.987859,37.9722864 775.000603,38.2016722 C775.051577,39.3231138 775.421143,40.1896823 776.083813,40.788634 C776.810201,41.4513041 777.715001,41.8336137 778.798212,41.9610502 L778.798212,43.4138268 C778.798212,43.6049817 778.951135,43.7706492 779.155034,43.7706492 L780.442143,43.7706492 C780.633298,43.7706492 780.798965,43.6177253 780.798965,43.4138268 L780.798965,41.9228193 C781.665534,41.7571518 782.379178,41.4258168 782.927156,40.8905833 C783.564338,40.2661442 783.895673,39.4505503 783.895673,38.4183143 C783.895673,37.3478474 783.577082,36.5195098 782.939899,35.9333017 C782.302716,35.3598373 781.295968,34.7736292 779.932397,34.1874211 C779.346189,33.932548 778.938392,33.6776749 778.734493,33.4228018 C778.517851,33.1679287 778.415902,32.8365937 778.415902,32.4415404 C778.415902,32.0464871 778.517851,31.7151521 778.72175,31.460279 C778.925648,31.2054059 779.231496,31.0779694 779.652036,31.0779694 C780.059833,31.0779694 780.391168,31.2308933 780.633298,31.5494846 C780.824453,31.8043577 780.951889,32.16118 780.99012,32.6199516 C781.002864,32.8238501 781.194019,32.9767739 781.410661,32.9767739 L783.526107,32.9512866 C783.755493,32.9512866 783.946648,32.7601318 783.933904,32.530746 C783.88293,31.6132029 783.577082,30.83584 783.041848,30.2114009 C782.481128,29.5614745 781.741996,29.1536776 780.824453,28.9625228 L780.824453,27.3568223 C780.811709,27.1529239 780.646041,27 780.454887,27 L780.454887,27 L780.454887,27 Z" id="search-price"></path>
        </g>
    </g>
</svg>